<svg width="165" height="277" viewBox="0 0 165 277" fill="none" xmlns="http://www.w3.org/2000/svg">
<path d="M112.81 276.991C120.524 277.058 129.351 276.834 134.294 273.115C135.435 272.242 136.331 271.166 136.141 270.046C135.734 267.627 131.089 266.596 127.232 266.193C104.852 263.863 81.9823 264.759 59.3301 265.7C45.1792 266.283 30.8924 266.865 17.3934 269.576C10.3587 270.987 4.7907 274.661 13.6452 276.274C22.228 277.842 35.4013 276.341 44.4187 276.409C67.2068 276.588 90.0218 276.789 112.81 276.991Z" fill="url(#paint0_linear_8_432)"/>
<path d="M112.81 276.991C120.524 277.058 129.351 276.834 134.294 273.115C135.435 272.242 136.331 271.166 136.141 270.046C135.734 267.627 131.089 266.596 127.232 266.193C104.852 263.863 81.9823 264.759 59.3301 265.7C45.1792 266.283 30.8924 266.865 17.3934 269.576C10.3587 270.987 4.7907 274.661 13.6452 276.274C22.228 277.842 35.4013 276.341 44.4187 276.409C67.2068 276.588 90.0218 276.789 112.81 276.991Z" fill="url(#paint1_linear_8_432)"/>
<path d="M143.149 20.6378C142.768 19.7192 142.334 18.7559 142.497 17.7926C142.524 17.6134 142.606 17.4117 142.823 17.3669C142.931 17.3445 143.04 17.3893 143.149 17.3893C143.665 17.4566 144.154 17.0981 144.317 16.6724C144.48 16.2692 144.452 15.8212 144.507 15.3731C144.67 14.0066 145.783 12.752 147.304 12.2368C148.825 11.6991 150.699 11.9007 151.976 12.752C152.329 12.976 152.628 13.2673 152.791 13.6033C152.927 13.8945 152.927 14.2082 152.899 14.5218C152.845 18.2855 152.275 22.0267 151.161 25.6784C151.08 25.9248 150.998 26.1936 150.835 26.4176C150.346 27.0673 149.287 27.2017 148.364 27.1569C146.979 27.0897 144.724 26.8209 144.425 25.5887C144.018 23.9085 143.828 22.2731 143.149 20.6378Z" fill="#66544D"/>
<path d="M4.87214 76.3306C3.70422 75.1432 2.64519 73.8439 2.07481 72.3877C1.50444 70.9315 1.50437 69.2738 2.34636 67.9296C2.67229 67.4143 3.10692 66.9439 3.75878 66.675C4.51929 66.3614 5.46971 66.4286 6.25737 66.6975C7.04504 66.9663 7.72409 67.4592 8.32163 67.952C9.00066 68.4897 9.62553 69.0945 10.1959 69.6994C10.549 70.1027 11.0648 70.5507 11.6352 70.4387C11.771 70.4163 11.9069 70.3491 12.0699 70.3267C12.7489 70.2147 13.1562 70.9092 13.3463 71.4468C13.8352 72.8134 14.5143 74.1351 15.4106 75.3673C15.9267 76.1066 16.5513 76.9131 16.3612 77.7644C16.2525 78.2796 15.8452 78.7276 15.4378 79.1085C14.8402 79.691 14.1612 80.2287 13.3463 80.5647C10.1142 81.9761 6.69192 78.1676 4.87214 76.3306Z" fill="#66544D"/>
<path d="M124.598 172.236C126.635 182.362 126.309 192.713 125.983 202.995C125.576 215.698 125.168 228.4 124.788 241.102C124.734 243.186 124.652 245.247 124.598 247.33C124.462 251.43 124.326 255.552 124.218 259.652C124.19 260.884 124.136 262.161 123.539 263.303C121.665 266.888 115.771 267.268 111.045 267.112C107.758 267 104.037 266.731 101.945 264.625C99.8541 262.542 100.234 259.495 100.615 256.829C101.511 250.377 101.755 243.88 101.973 237.383C102.108 233.53 102.244 229.654 102.38 225.801C102.733 215.944 98.3061 206.512 97.7357 194.482C96.8394 175.597 87.4146 160.968 82.1454 142.598C81.9009 141.769 88.7452 138.812 89.3699 138.14C89.8317 137.647 90.6465 137.468 91.3798 137.333C99.7454 135.787 108.681 136.504 116.558 139.305C123.62 141.814 119.654 147.773 120.279 153.015C121.067 159.489 123.321 165.807 124.598 172.236Z" fill="#333333"/>
<path d="M43.5222 264.558C39.1221 263.549 34.5591 262.945 29.9961 262.743C26.1121 264.042 22.0108 264.983 17.7736 265.499C16.5514 265.655 15.2479 265.79 14.2429 266.305C13.238 266.82 12.6133 267.896 13.238 268.725C13.7812 269.441 14.9761 269.71 16.0625 269.912C24.3194 271.346 32.7393 272.197 41.1592 272.466C41.6752 272.488 42.1914 272.488 42.626 272.287C42.9519 272.13 43.1692 271.861 43.3322 271.592C44.6902 269.441 44.7716 266.82 43.5222 264.558Z" fill="#E0C74E"/>
<path d="M83.1774 137.692C77.881 134.13 69.0537 134.085 64.7622 138.498C62.9968 140.313 62.1548 142.598 61.0684 144.726C58.2165 150.349 53.5992 155.233 49.6065 160.363C43.7941 167.823 39.2311 175.888 34.668 183.908C32.9026 187.044 31.1098 190.226 30.1592 193.608C29.2086 196.991 29.127 200.486 29.0455 203.936C28.8554 212.068 28.6926 220.2 28.5024 228.333C28.3938 233.821 28.258 239.287 28.1493 244.776C27.9049 245.919 27.633 246.972 27.2256 247.8C26.6009 249.033 25.8406 250.287 25.732 251.609C25.5962 252.953 26.1392 254.342 25.8676 255.664C25.5688 257.075 24.4283 258.33 24.4283 259.763C24.4283 261.713 26.4923 263.124 28.6652 263.998C29.1813 264.714 29.8332 265.275 30.7567 265.566C32.1419 266.014 33.7986 265.991 35.4555 265.678C36.9765 265.879 38.5248 266.014 40.073 266.036C41.594 266.036 43.2778 265.879 44.2828 264.961C45.5322 263.818 45.2336 262.049 45.478 260.525C45.8039 258.397 47.325 256.537 47.8682 254.432C48.2484 253.043 48.1668 251.587 48.031 250.153C47.7594 247.464 47.2704 244.776 46.5642 242.133C46.5642 242.088 46.5373 242.043 46.5373 241.998C46.9991 236.599 47.3249 230.999 48.1126 225.891C48.9545 220.402 49.5522 214.129 50.9102 208.708C52.1325 203.891 50.9373 200.62 54.2238 196.521C56.0164 194.281 58.2707 192.309 60.6065 190.427C67.5054 184.916 70.3029 179.472 76.8487 173.693C83.4217 167.913 88.8811 160.833 89.8045 152.948C90.4836 147.369 88.4738 141.254 83.1774 137.692Z" fill="#333333"/>
<path d="M110.202 50.1868C110.094 46.6472 109.388 43.1524 106.807 40.4192C105.938 39.5007 104.879 38.6943 104.146 37.7085C103.467 36.8124 103.086 35.7819 102.407 34.8858C101.783 34.0569 100.941 33.3624 100.071 32.7127C99.148 31.9958 98.1701 31.279 97.0022 30.8309C95.6713 30.3157 94.2045 30.1813 92.765 30.0245C90.1575 29.778 87.496 29.5315 84.9157 29.9796C83.612 30.2036 82.3626 30.6069 81.1403 31.0101C77.5008 32.2198 73.7251 33.8552 71.7152 36.5436C70.7103 37.4845 69.814 38.5374 69.0535 39.7472C67.1794 42.7267 66.0658 46.2439 64.9794 49.4475C63.8929 52.6959 61.5301 56.1459 60.7152 59.2599C59.9004 62.3738 61.2856 66.1823 60.6881 69.4307C60.5523 69.8115 58.2978 79.5791 59.8731 78.3245C59.4385 78.683 59.9005 79.1982 60.4437 79.131C61.7203 78.9518 62.2363 78.683 62.508 78.2349C62.4808 78.5261 62.4535 78.8174 62.3992 79.0862C62.2906 79.7807 63.7571 79.9599 63.8929 79.2431C64.083 78.3469 64.2733 77.4284 64.4635 76.5323C64.4906 77.3388 64.5179 78.1229 64.545 78.9294C64.5722 79.1534 64.572 79.4222 64.735 79.6014C65.2239 80.1839 66.2289 79.7359 67.1252 79.6911C67.3968 81.1248 70.0043 81.1697 70.1944 79.8479C70.2487 80.0047 70.3029 80.1615 70.4387 80.2959C70.9276 80.8112 71.8785 80.7888 72.6661 80.6768C72.5575 80.4976 72.4757 80.3184 72.3671 80.1391C73.2091 80.1391 74.0241 79.7135 73.9698 78.795C73.9155 78.0557 73.861 77.2716 73.8067 76.5099C73.9425 77.1596 74.0784 77.7868 74.2413 78.4365C74.3771 79.0414 74.513 79.6911 74.9476 80.2063C75.3821 80.7216 76.1697 81.08 76.9031 80.9008C76.9302 80.1615 76.9573 79.3774 76.4956 78.7278C76.2511 78.3693 75.8439 78.0557 75.6538 77.6748C75.355 77.1148 75.4636 76.5099 75.5994 75.8827C75.9796 77.0924 76.4957 78.2797 77.2562 79.3998C77.5821 79.8703 78.3971 79.6463 78.4242 79.131C78.5057 77.5628 78.3969 76.0395 78.2339 74.5385C78.4784 75.8378 78.6957 77.1372 78.9129 78.4365C79.0759 79.355 81.0043 79.1534 80.8956 78.2125C80.1623 71.5589 81.0043 64.7933 80.1894 58.1397C80.0536 57.0868 78.9403 56.706 78.0711 56.9748C78.3971 54.6449 78.6958 52.3151 78.7501 49.9628C78.7773 48.5514 76.034 48.1706 75.681 49.6268C75.1106 52.1135 74.9205 52.1134 74.676 54.8241C74.6488 52.0686 74.3501 52.0238 74.3229 49.2459C74.3229 48.6634 74.3228 48.081 74.5129 47.5209C74.6487 47.1401 74.8932 46.7816 74.9476 46.3783C75.0019 45.9303 74.7847 45.5271 74.7032 45.079C74.5131 43.9141 75.9796 41.9202 76.9302 41.0465C78.1525 39.904 80.0538 39.3439 81.765 38.851C83.0959 38.4702 84.3995 38.0893 85.7304 37.7309C87.0341 37.3725 88.4192 36.9916 89.7501 37.2605C90.3477 37.3725 90.9181 37.6413 91.5429 37.7085C92.1947 37.7757 92.8193 37.6413 93.4712 37.6189C96.1873 37.5293 98.4146 39.5231 99.4196 41.6066C101.104 45.079 100.56 48.9546 100.723 52.7183C100.234 51.3965 97.5182 51.7774 97.5453 53.2336C97.5725 53.7936 97.5997 54.3313 97.6269 54.869C96.6219 54.2641 94.9651 54.5553 94.8836 55.9443C94.4762 63.3595 95.9971 70.7076 96.1601 78.1229C96.1872 78.7054 97.1923 78.7054 97.2466 78.1229C97.3824 76.8684 97.5183 75.6138 97.6541 74.3592C97.7899 75.7482 98.0886 77.1148 98.659 78.5037C98.9578 79.2206 100.261 79.1086 100.289 78.3245C100.289 77.7869 100.316 77.2492 100.343 76.6891C100.642 76.7563 100.995 76.7787 101.294 76.7563C101.321 77.0924 101.348 77.4284 101.375 77.7645C101.402 78.0109 101.43 78.2573 101.511 78.4813C101.511 78.5261 101.511 78.5709 101.511 78.6157C101.321 80.4975 104.526 80.6544 105.259 79.131C105.585 79.3998 106.074 79.579 106.481 79.3998C105.83 77.9885 105.802 76.4203 105.802 74.8969C105.802 73.3512 105.802 71.8054 105.802 70.2596L106.291 77.9212C106.4 78.6381 107.731 78.9294 107.948 78.1005C108.057 77.6973 108.138 77.2492 108.247 76.8235C108.22 77.3388 108.247 77.8317 108.573 78.2573C109.035 78.8398 110.311 78.9518 110.583 78.3021C110.365 77.3836 110.637 76.4875 110.881 75.569C110.936 75.9274 111.017 76.2859 111.071 76.6443C111.425 78.571 115.444 78.1229 115.2 76.1738C114.168 67.28 113.136 58.5206 110.202 50.1868ZM67.0708 77.8317C66.8535 76.8012 66.7993 75.7706 66.7993 74.7177C66.7993 73.844 66.8534 72.9703 66.9621 72.0966C67.125 72.9031 67.2883 73.7096 67.2611 74.5161C67.234 75.6586 67.1251 76.7339 67.0708 77.8317Z" fill="#333333"/>
<path d="M104.716 45.6166C104.716 38.963 97.681 33.5864 89.0167 33.5864C80.3524 33.5864 73.3179 38.9855 73.3179 45.6166C73.3179 46.7368 73.5351 47.7897 73.8882 48.8202C73.8882 49.089 73.9154 49.3579 73.9154 49.6267C73.8611 52.0238 73.9968 54.4433 74.5672 56.818C75.6808 61.4329 78.5598 65.7118 84.0192 68.3329C85.839 69.2066 87.9303 69.8787 90.1032 69.8563C93.0366 69.8339 95.7257 68.6018 97.7628 67.056C104.472 61.9706 105.069 54.3089 104.58 47.0952C104.662 46.6024 104.716 46.1095 104.716 45.6166Z" fill="#66544D"/>
<path d="M81.8734 68.1313C82.6067 68.9377 83.3674 69.7667 84.4539 70.3267C85.7576 70.9764 87.3874 71.1556 88.9899 71.178C90.9183 71.2005 92.9279 70.9988 94.4761 70.1699C95.5897 69.565 98.3059 67.7728 98.9849 66.8991C101.321 63.9868 102.787 61.9705 104.037 58.6998C104.417 57.714 104.743 56.6835 104.716 55.653C104.254 55.4961 103.684 55.7426 103.467 56.0786C103.249 56.4147 103.249 56.7956 103.249 57.1764C103.168 59.1702 101.945 61.052 100.696 62.8218C99.5825 64.39 96.785 65.7566 95.0739 66.9888C93.3628 68.2209 91.0269 69.0946 88.6096 68.9826C88.2836 68.9602 87.9847 68.9377 87.7131 68.8257C87.1155 68.5793 86.8982 68.0641 86.7081 67.5936C86.5451 67.1232 86.3279 66.5855 85.7575 66.3166C85.1872 66.0478 84.2092 66.2942 84.2636 66.7871C84.3179 67.1007 84.7526 67.3472 84.7798 67.6608C84.7798 68.0193 84.155 68.2433 83.6661 68.1537C83.1772 68.0641 82.8515 67.7504 82.5256 67.4592C81.765 66.7647 81.0315 66.0926 80.271 65.3981C79.945 65.1069 79.5922 64.8605 79.1304 65.0397C79.7551 66.115 81.0042 67.1455 81.8734 68.1313Z" fill="#333333"/>
<path d="M105.34 44.6086C104.852 42.5027 105.015 40.1281 103.249 38.4255C102.217 37.4173 100.615 37.0813 99.4739 36.2076C97.7356 34.8858 97.7083 34.1914 95.6169 33.4521C87.2785 30.4949 75.3277 35.1098 70.8461 41.0913C69.7597 42.5475 71.1991 43.8917 72.7745 44.0485C72.3399 45.3926 72.2586 46.8713 72.6389 48.4395C72.7475 48.8651 73.6167 48.8875 73.6982 48.4395C75.4093 40.2849 85.5675 35.8043 94.3676 40.464C99.3381 43.1076 102 51.531 103.222 56.0563C103.738 57.9382 107.133 57.4453 107.188 55.6083C107.296 52.8303 105.965 47.3417 105.34 44.6086Z" fill="#333333"/>
<path d="M105.313 55.2275C105.531 55.1379 105.775 55.0706 105.911 54.9138C106.101 54.7346 106.128 54.4882 106.155 54.2417C106.21 53.3008 105.992 52.3823 105.748 51.4638C105.449 50.3212 105.178 49.1563 104.879 48.0138C104.825 47.8346 104.77 47.6329 104.634 47.4985C104.471 47.3417 104.2 47.2969 103.982 47.2521C102.407 46.9832 100.805 46.8489 99.2293 46.8265C99.175 46.8265 99.0936 46.8264 99.0393 46.8488C98.9578 46.8936 98.9578 46.9833 98.9578 47.0729C98.9849 47.5657 99.1207 48.0586 99.2293 48.5515C99.6639 50.6573 99.6097 52.8079 100.017 54.8914C100.18 55.6755 100.642 56.9749 101.918 56.7508C102.461 56.6612 102.95 56.3476 103.412 56.1011C104.01 55.7875 104.634 55.4739 105.313 55.2275Z" fill="#A8A8A8"/>
<path d="M59.2212 118.985C61.394 111.503 62.6979 103.841 65.1696 96.4035C67.6412 88.9658 71.3894 81.6402 77.7451 76.0171C78.2883 75.5243 78.8857 75.0314 79.6191 74.7177C80.3252 74.4041 81.14 74.2697 81.9277 74.1352C86.9796 73.3063 92.0318 72.4999 97.0837 71.671C97.8442 71.5366 98.6318 71.4246 99.3923 71.5814C100.234 71.7606 100.886 72.2758 101.484 72.8135C103.792 74.8073 105.721 77.0924 107.215 79.5343C110.338 84.6421 111.506 90.3548 112.62 96.0002C115.281 109.285 117.943 122.547 120.578 135.832C120.768 136.773 120.958 137.781 120.578 138.677C120.252 139.484 119.519 140.111 118.785 140.694C110.773 146.899 99.0391 148.49 88.0661 148.938C81.6018 149.207 75.1103 149.184 68.6731 148.579C62.6977 148.042 54.1692 146.429 54.0605 140.425C53.8704 133.211 57.1841 125.953 59.2212 118.985Z" fill="#4A4E31"/>
<path d="M119.845 63.4491C123.62 61.7241 127.477 59.9095 130.193 57.1315C132.23 55.0257 133.479 52.4942 134.62 49.9627C138.151 42.2114 141.057 34.2809 143.339 26.2384C143.474 25.7679 143.638 25.2526 144.154 25.0062C144.534 24.827 145.023 24.8494 145.484 24.8942C146.87 25.0286 148.255 25.1406 149.64 25.275C150.183 25.3198 150.754 25.387 151.134 25.7231C151.596 26.1039 151.568 26.7088 151.541 27.2464C150.672 38.1565 148.337 48.9546 146.001 59.7079C145.485 62.1274 144.914 64.6365 143.393 66.7647C142.116 68.5569 140.215 69.9907 138.368 71.4021C132.366 75.9274 126.336 80.4751 119.79 84.4628C116.395 86.5238 112.62 88.5177 108.41 88.5177C107.595 88.5177 106.753 88.4505 106.074 88.092C105.368 87.7336 104.906 87.1287 104.526 86.5239C102.299 83.1859 98.6048 75.6361 101.484 71.9173C102.951 69.9907 106.943 69.1842 109.252 68.1985C112.81 66.6751 116.314 65.0621 119.845 63.4491Z" fill="#4A4E31"/>
<path d="M27.2529 102.833C28.0134 103.751 28.8282 104.715 29.969 105.297C31.7073 106.193 33.9347 106.104 35.9718 105.857C43.9299 104.872 51.3175 101.937 58.5423 99.0469C63.893 96.8963 69.2438 94.768 74.5946 92.6173C76.7131 91.766 78.9401 90.8475 80.1895 89.1897C81.113 87.98 81.3577 86.5014 81.4935 85.0676C81.738 82.4465 81.6021 79.803 81.1132 77.1819C81.0046 76.5995 80.8415 75.9722 80.2711 75.6137C79.755 75.2777 79.0218 75.3001 78.37 75.3449C74.0514 75.7033 70.1401 77.5403 66.3647 79.3326C60.8782 81.9537 55.3919 84.5748 49.9053 87.1959C46.8362 88.6521 43.7667 90.1083 40.4531 91.1164C39.5839 91.3852 38.6333 91.6092 37.7641 91.4076C37.1123 91.2732 36.5694 90.9148 36.0261 90.5787C29.3445 86.2102 23.0972 81.3936 17.3662 76.1738C16.8774 75.7257 16.2528 75.2329 15.5195 75.3225C15.1121 75.3897 14.7861 75.6137 14.4602 75.8378C12.3145 77.4283 8.83775 78.9069 9.59826 81.4608C10.2773 83.7235 13.8354 86.6135 15.4379 88.5401C19.3491 93.3118 23.1787 98.1508 27.2529 102.833Z" fill="#4A4E31"/>
<path d="M102.516 43.3092C101.701 43.7797 101.565 44.7206 101.565 45.5495C101.592 48.3498 102.353 51.0829 103.113 53.8161C103.304 54.4881 103.494 55.1602 103.874 55.7651C104.254 56.3699 104.879 56.9076 105.666 57.1092C106.536 57.3333 107.514 57.1316 108.22 56.6836C109.17 56.1011 109.686 55.1378 109.849 54.1745C110.012 53.2112 109.904 52.2254 109.768 51.2621C109.496 49.2907 109.17 47.3193 108.355 45.4598C108.084 44.8102 107.704 44.1381 107.106 43.6452C106.183 42.8611 103.657 42.6371 102.516 43.3092Z" fill="#F0F0F0"/>
<path d="M107.024 45.2358C106.644 45.7286 106.644 46.3559 106.726 46.9384C106.943 48.7978 107.595 50.59 108.247 52.3822C108.437 52.8975 108.736 53.5024 109.387 53.5472C109.849 53.592 110.257 53.3007 110.447 52.9423C110.637 52.6062 110.637 52.203 110.637 51.8446C110.637 50.6572 110.637 49.4475 110.366 48.2601C110.148 47.4536 108.627 43.2643 107.024 45.2358Z" fill="#BFBFBF"/>
<path d="M109.334 44.9894C108.98 43.5556 108.953 42.0546 108.41 40.6657C107.975 39.5231 107.215 38.4925 106.454 37.462C105.585 36.2747 104.689 35.065 103.521 34.0569C101.62 32.4439 99.0665 31.4805 96.4862 30.8309C90.7009 29.3971 84.264 29.5091 78.8047 31.6374C73.5626 33.676 69.3797 37.7085 68.1847 42.3682C68.1575 42.4802 68.1031 42.6146 68.0759 42.7267C68.0488 42.7939 68.0215 42.8611 68.0215 42.9283C68.0215 42.9955 68.0215 43.0403 68.0215 43.1075C67.9944 43.2644 67.9403 43.4436 67.9403 43.6004C67.9132 44.1605 67.9672 44.7205 68.0487 45.303C68.2117 46.7143 68.3748 48.1257 68.5378 49.5147C68.5378 49.6267 68.565 49.7611 68.6193 49.8507C68.8366 50.1867 69.4341 50.1644 69.8958 50.0971C70.0045 50.0747 70.1131 50.0523 70.1946 50.0075C70.3032 49.9179 70.3033 49.7835 70.2761 49.6491C70.2218 49.2234 69.95 48.8202 69.7599 48.417C69.4068 47.6105 69.3524 46.7367 69.3524 45.863C69.3524 44.6533 69.461 43.4435 69.6783 42.2338C69.7326 41.965 69.9773 41.4273 69.8414 41.0912C70.3847 40.2847 70.9823 39.5231 71.607 38.7614C73.3453 36.6332 75.1649 34.4377 77.881 33.2055C79.0489 32.6679 80.3527 32.3542 81.6564 32.1302C86.7626 31.2341 92.1949 31.6822 96.948 33.452C97.953 33.8328 98.9581 34.2585 99.8272 34.8185C100.425 35.2218 100.968 35.6699 101.538 36.1179C102.652 36.9916 103.874 37.8205 104.798 38.851C107.785 42.2114 106.943 46.9832 109.252 50.6796C109.388 50.9037 109.578 51.15 109.877 51.1724C110.447 51.262 110.719 50.6124 110.719 50.1419C110.583 48.4169 109.741 46.7368 109.334 44.9894Z" fill="#F0F0F0"/>
<path d="M67.6955 50.7917C67.5868 52.9424 68.13 55.0482 68.7004 57.1541C69.0807 58.543 69.5154 60.044 70.8734 60.9625C71.6883 61.5226 72.9375 61.7466 73.7523 61.2313C74.5943 60.6937 74.6488 59.6856 74.5945 58.7895C74.4043 55.8771 73.9697 52.8752 72.5302 50.1869C72.0685 49.3132 71.2536 47.7001 69.7869 47.8121C68.1573 47.9465 67.7498 49.7164 67.6955 50.7917Z" fill="#BFBFBF"/>
<path d="M70.9007 59.9318C71.4168 60.1335 72.0143 60.1559 72.5847 60.1783C78.1798 60.3799 83.0958 59.5062 89.3699 58.9238C90.8366 58.7894 91.8146 58.5429 93.2813 58.3861C94.3949 58.274 95.9431 58.0277 97.0567 57.938C98.6592 57.8036 100.126 57.378 101.674 57.042C101.864 56.9971 102.082 56.9523 102.19 56.8179C102.326 56.6835 102.299 56.4818 102.244 56.3026C101.728 53.5919 101.212 50.9036 100.696 48.1929C100.642 47.8792 100.588 47.5656 100.37 47.3192C99.827 46.6471 98.6591 46.6695 97.6814 46.7815C88.8812 47.8344 80.1626 49.8507 71.2538 49.6715C70.6019 49.6491 69.8414 49.6938 69.4883 50.1419C69.3525 50.2987 69.3254 50.5003 69.2711 50.702C68.918 52.539 69.2709 54.3536 69.0264 56.1682C68.9178 57.5348 69.1624 59.2822 70.9007 59.9318Z" fill="#BFBFBF"/>
<path d="M78.1795 48.2826C79.9721 48.0361 81.7647 47.7897 83.5845 47.7001C85.3771 47.6105 87.17 47.7001 88.9355 47.5209C91.6787 47.2521 94.3677 46.4007 97.1381 46.2439C98.0073 46.1991 98.9576 46.2663 99.5552 46.8488C100.017 47.2968 100.18 47.9465 100.289 48.5738C100.75 50.7917 101.131 53.0095 101.457 55.2498C101.511 55.541 101.538 55.877 101.402 56.1459C101.266 56.4371 100.968 56.6387 100.669 56.7731C99.854 57.154 98.9306 57.266 98.0343 57.3556C91.4342 58.0949 84.834 58.8342 78.2339 59.5735C75.6264 59.8647 72.8561 60.1335 70.5203 58.9686C70.2215 58.8118 69.8955 58.6326 69.7325 58.3413C69.5424 58.0277 69.5153 57.6693 69.5153 57.3108C69.461 55.8323 69.4609 54.3761 69.4609 52.8975C69.4609 51.979 69.1079 50.2764 69.8956 49.5819C70.6561 48.9098 72.6389 48.9994 73.6166 48.865C75.1377 48.7082 76.6585 48.4842 78.1795 48.2826Z" fill="#F0F0F0"/>
<path d="M97.7627 47.6104C97.5183 47.4983 97.2194 47.476 96.9478 47.476C96.3774 47.476 94.8835 47.5208 94.5576 47.9912C94.3131 48.3273 94.5577 49.0665 95.0194 49.2234C95.1552 49.2682 95.3452 49.2682 95.481 49.2682C96.0513 49.2458 96.6217 49.201 97.1649 49.0889C97.4094 49.0441 97.6538 48.9993 97.844 48.8649C98.3057 48.5513 98.2516 47.8568 97.7627 47.6104Z" fill="#4D4D4D"/>
<path d="M92.7377 48.6633C92.7106 48.9098 93.1183 49.089 93.3899 48.9546C93.7158 48.7978 93.4711 48.4394 93.4711 48.4394C93.1995 48.2826 92.7649 48.4169 92.7377 48.6633Z" fill="#4D4D4D"/>
<path d="M114.059 265.118C115.445 265.118 116.938 265.342 117.97 266.081C119.138 266.932 119.546 268.276 119.899 269.509C120.198 270.517 120.469 271.525 120.768 272.533C120.795 272.645 120.822 272.757 120.768 272.869C120.687 273.026 120.442 273.093 120.252 273.138C117.21 273.765 103.901 275.602 102.462 272.287C101.783 270.696 105.232 268.075 106.563 267.268C108.709 265.947 111.343 265.14 114.059 265.118Z" fill="#E0C74E"/>
<path d="M2.53624 93.8048C3.26958 92.2814 3.59549 90.7357 3.8671 89.1003C4.0029 88.1817 2.23738 88.1817 2.10157 89.1003C1.85712 90.7357 1.47692 92.0798 0.797899 93.6031C0.336163 94.6337 -0.0710261 95.597 0.0104567 96.7171C0.146261 98.711 1.63985 100.279 3.1337 101.735C3.37815 101.982 3.89438 101.668 3.64993 101.399C1.50422 98.8678 1.17819 96.65 2.53624 93.8048Z" fill="#BFBFBF"/>
<path d="M11.6625 62.7098C10.8205 62.1498 9.87014 61.7241 8.86519 61.4105C8.05036 61.164 7.0182 61.0521 6.44782 61.5897C6.20337 61.8137 6.09466 62.1274 6.04034 62.441C5.82305 63.3595 5.85028 64.3004 5.7688 65.2414C5.55151 67.4368 4.7094 69.5202 3.9489 71.6261C2.40072 75.9498 1.25994 80.3631 0.52659 84.8212C0.472268 85.2245 0.390786 85.6277 0.52659 86.0086C0.662395 86.367 0.934004 86.6807 1.20561 86.9943C1.93896 87.9128 2.50941 88.9881 3.65017 89.5706C5.14402 90.3547 7.39819 89.8394 8.21302 88.5401C8.72908 87.7112 8.70217 86.7478 8.81081 85.8293L8.91923 84.5524C9.59825 80.4751 10.2773 76.3755 10.9563 72.2982C11.3637 69.8115 11.7714 67.3247 12.559 64.9053C12.6677 64.5468 12.8033 64.1884 12.7218 63.83C12.5589 63.4043 12.0971 63.0235 11.6625 62.7098Z" fill="#F0F0F0"/>
<path d="M7.45265 62.1274C5.85016 61.2089 4.70936 59.7528 4.35626 58.1622C4.08465 56.9972 4.22034 55.7875 4.57343 54.6449C4.84504 53.7488 5.30694 52.8303 6.0946 52.1582C6.63782 51.6878 7.37114 51.3293 8.10449 51.1053C10.7663 50.2316 13.9712 50.6124 16.1712 52.091C18.3984 53.5696 19.4848 56.1235 18.8873 58.4086C17.7465 62.6203 11.7169 64.5917 7.45265 62.1274Z" fill="#BFBFBF"/>
<path d="M162.623 36.0732C163.275 34.5274 163.546 32.9816 163.736 31.3462C163.845 30.4053 162.053 30.4725 161.971 31.391C161.808 33.0264 161.482 34.393 160.885 35.9388C160.477 36.9917 160.097 37.955 160.233 39.0751C160.477 41.0689 161.998 42.5699 163.574 43.9813C163.818 44.2053 164.307 43.8917 164.09 43.6228C161.808 41.181 161.374 38.9631 162.623 36.0732Z" fill="#BFBFBF"/>
<path d="M142.089 9.61551C141.057 9.81713 140.052 10.1756 139.129 10.646C138.396 11.0269 137.662 11.6317 137.825 12.3486C137.907 12.6399 138.124 12.9087 138.396 13.1327C139.156 13.8272 140.08 14.3873 140.922 15.037C142.877 16.5155 144.371 18.3526 145.919 20.1448C149.097 23.7964 152.628 27.2464 156.458 30.4724C156.784 30.7636 157.164 31.0548 157.598 31.1893C158.033 31.3237 158.495 31.3236 158.956 31.3684C160.287 31.4357 161.673 31.7269 162.922 31.3461C164.579 30.8532 165.475 29.0834 164.742 27.7392C164.28 26.8879 163.329 26.3279 162.515 25.7006L161.346 24.8493C157.843 21.9145 154.339 18.9574 150.835 16.0227C148.717 14.2305 146.571 12.4382 144.724 10.4444C144.452 10.1532 144.181 9.83953 143.773 9.68271C143.312 9.45868 142.66 9.52589 142.089 9.61551Z" fill="#F0F0F0"/>
<path d="M138.966 12.0127C137.092 12.4832 135 12.3488 133.262 11.6095C131.985 11.0718 130.899 10.2429 130.03 9.30199C129.324 8.56271 128.726 7.73375 128.563 6.79284C128.455 6.14317 128.563 5.47114 128.78 4.82147C129.568 2.5588 131.904 0.699343 134.674 0.16168C137.445 -0.375984 140.568 0.452919 142.388 2.26753C145.756 5.60553 143.936 10.7357 138.966 12.0127Z" fill="#BFBFBF"/>
<defs>
<linearGradient id="paint0_linear_8_432" x1="9.08703" y1="270.849" x2="136.166" y2="270.849" gradientUnits="userSpaceOnUse">
<stop stop-color="#4D4D4D"/>
<stop offset="1"/>
</linearGradient>
<linearGradient id="paint1_linear_8_432" x1="9.08703" y1="270.849" x2="136.166" y2="270.849" gradientUnits="userSpaceOnUse">
<stop/>
<stop offset="1"/>
</linearGradient>
</defs>
</svg>
