<svg width="227" height="234" viewBox="0 0 227 234" fill="none" xmlns="http://www.w3.org/2000/svg">
<path d="M49.8438 226.209C45.1697 226.493 39.8818 227.036 37.3795 229.349C36.7894 229.892 36.4117 230.529 36.5297 231.167C36.9311 233.055 41.1566 233.598 44.4379 233.669C90.3996 234.708 136.432 232.937 182.418 233.291C196.062 233.386 210.202 233.645 222.785 230.577C225.051 230.034 227.648 228.759 226.538 227.484C225.783 226.634 223.847 226.493 222.195 226.445C198.777 225.761 175.359 225.242 151.918 224.911C140.091 224.746 128.241 224.628 116.414 224.533C106.971 224.463 98.119 225.383 88.6528 225.265C75.6928 225.124 62.7329 225.454 49.8438 226.209Z" fill="url(#paint0_linear_8_340)"/>
<path d="M49.8438 226.209C45.1697 226.493 39.8818 227.036 37.3795 229.349C36.7894 229.892 36.4117 230.529 36.5297 231.167C36.9311 233.055 41.1566 233.598 44.4379 233.669C90.3996 234.708 136.432 232.937 182.418 233.291C196.062 233.386 210.202 233.645 222.785 230.577C225.051 230.034 227.648 228.759 226.538 227.484C225.783 226.634 223.847 226.493 222.195 226.445C198.777 225.761 175.359 225.242 151.918 224.911C140.091 224.746 128.241 224.628 116.414 224.533C106.971 224.463 98.119 225.383 88.6528 225.265C75.6928 225.124 62.7329 225.454 49.8438 226.209Z" fill="url(#paint1_linear_8_340)"/>
<path d="M94.1532 213.698C91.6981 214.548 89.1485 213.698 87.0003 211.715C93.8462 192.027 91.4147 170.923 99.5117 151.495C100.244 149.772 101.07 148.025 102.533 146.585C105.366 143.823 113.534 142.666 112.448 147.529C111.339 152.557 108.553 157.68 106.901 162.637C103.336 173.378 100.291 184.214 97.8121 195.12C96.4193 201.281 95.1918 207.489 94.1532 213.698Z" fill="#E2CBB7"/>
<path d="M127.249 215.61C125.361 215.87 123.425 215.917 121.513 215.775C121.324 194.105 119.955 172.434 117.382 150.858C117.146 148.945 116.933 146.986 117.594 145.145C119.034 141.203 126.069 139.456 128.76 143.587C131.074 147.128 129.539 153.596 129.586 157.397C129.728 169.79 129.445 182.183 128.784 194.553C128.406 201.588 127.91 208.599 127.249 215.61Z" fill="#E2CBB7"/>
<path d="M109.19 52.8436C107.491 50.5537 104.988 48.9013 103.407 46.517C102.038 44.4633 101.471 41.8193 102.297 39.5059C103.124 37.1925 105.531 35.422 107.963 35.7289L105.319 35.5872C102.793 36.2954 99.9602 37.2397 98.9215 39.6711C98.1661 41.4416 98.662 43.4718 99.0397 45.3367C99.6062 48.0278 99.9366 50.8606 99.2284 53.5281C98.6855 55.5583 97.576 57.3996 96.8678 59.3825C96.1596 61.3655 95.8999 63.7025 97.0331 65.4966C98.0009 67.0074 99.8186 67.8337 101.613 67.9281C103.407 68.0225 105.177 67.4323 106.806 66.6769C108.223 66.0159 109.615 65.1425 110.489 63.8442C111.386 62.475 111.645 60.7753 111.527 59.1465C111.362 56.8566 110.536 54.6612 109.19 52.8436Z" fill="#534741"/>
<path d="M149.77 15.0968C155.412 35.7052 153.311 35.5636 149.463 47.4141C148.731 49.6803 146.984 53.4573 145.851 55.5347C143.892 59.0756 140.87 61.8376 137.872 64.5523C137.258 65.1189 136.597 65.6855 135.818 65.9923C135.11 66.252 134.355 66.252 133.599 66.134C131.357 65.7563 129.468 64.0566 128.666 61.9556C127.698 59.4297 129.185 58.4619 131.097 57.0455C134.874 54.2363 136.645 51.6396 139.714 47.957C141.437 45.9032 142.476 43.3537 143.42 40.8278C145.828 34.4541 146.961 34.4305 146.866 24.8935C146.843 23.241 145.757 18.0476 145.001 16.5604C144.104 14.8371 143.467 13.3499 142.83 11.9099C142.358 11.3906 142.121 10.3047 141.956 9.85618C141.626 8.95913 141.059 8.1329 140.351 7.47192C139.95 7.11782 139.477 6.78734 139.383 6.26799C139.359 6.07914 139.36 5.9139 139.312 5.72505C139.265 5.5362 139.147 5.37095 139.053 5.22931C138.816 4.89882 138.533 4.61554 138.226 4.35587C138.014 4.16702 137.778 3.97816 137.66 3.71849C137.447 3.19915 137.353 1.78277 137.731 1.33424C137.99 1.00375 139.666 -0.105752 140.28 0.01228C140.705 0.0830993 141.154 -0.0821448 141.578 0.059494C142.098 0.224739 142.594 0.460802 143.042 0.767686C143.538 1.12178 143.963 1.5467 144.364 1.97162C145.733 3.41161 145.828 6.31521 146.961 7.96766L149.77 15.0968Z" fill="#E2CBB7"/>
<path d="M119.388 56.054C123.024 55.7471 127.155 54.8501 129.988 57.0455C132.065 58.6508 132.632 61.3655 132.986 63.8678C135.889 84.0277 133.741 104.518 134.992 124.82C135.37 131.099 136.102 137.355 137.117 143.563C137.424 145.475 137.801 147.411 138.769 149.111C139.336 150.079 140.068 150.952 140.469 151.991C141.649 155.036 139.336 158.506 136.243 159.946C133.151 161.386 129.563 161.315 126.14 161.221C115.399 160.914 104.682 160.631 93.9406 160.324C91.2259 160.253 88.2516 160.064 86.3394 158.246C84.4273 156.429 84.2384 153.596 84.3564 151.023C84.8994 138.181 89.6679 125.858 92.8076 113.347C95.9236 100.954 97.4817 88.2769 100.503 75.8599C101.896 70.1471 103.218 63.2776 106.287 58.1078C109.096 53.4337 114.596 56.4317 119.388 56.054Z" fill="#D9924E"/>
<path d="M83.0344 71.2802C81.0515 72.8618 78.4784 74.5143 76.1414 73.5228C74.5126 72.8382 73.6627 71.0913 72.9073 69.4861C69.508 62.0737 65.9197 54.7557 62.3315 47.4377C60.8443 48.2639 59.1683 49.3262 58.9795 51.0259C58.885 51.9229 59.2628 52.8199 59.6405 53.6462C63.9133 63.254 68.5637 72.6966 73.5919 81.9503C74.064 82.8238 74.6069 83.768 75.4804 84.2401C76.5426 84.8067 77.841 84.5942 79.0213 84.311C85.9852 82.6349 92.477 79.448 98.6855 75.9071C100.338 74.9628 102.085 73.9005 102.817 72.1537C103.43 70.7609 103.289 69.1792 103.147 67.6684C102.746 63.6553 100.645 57.1163 95.6638 60.8934C91.3203 64.1274 87.2836 67.9045 83.0344 71.2802Z" fill="#E2CBB7"/>
<path d="M61.2929 43.1413C60.7971 42.7636 60.1362 42.7636 59.546 42.5511C58.106 42.0082 57.445 40.2377 56.1231 39.4351C54.9427 38.7033 53.2667 38.9393 52.2988 39.9544C51.3546 40.9459 51.095 42.4331 50.9061 43.8023C50.8353 44.298 50.7645 44.7937 50.8825 45.2659C51.0241 45.8088 51.4018 46.2337 51.7559 46.6114C53.55 48.4999 55.651 50.058 57.9644 51.2147C58.4366 51.4508 58.9087 51.6632 59.428 51.6868C61.4346 51.8285 62.6148 49.8219 62.6148 48.2167C62.6384 47.2252 62.1191 43.7551 61.2929 43.1413Z" fill="#E2CBB7"/>
<path d="M129.067 31.7394C128.689 30.1341 128.194 28.5525 127.509 27.0889C125.078 21.8955 117.712 15.1204 111.622 18.7794C110.205 19.6292 109.12 20.9276 108.104 22.226C107.066 23.5715 106.074 24.9643 105.295 26.4751C103.832 29.3315 103.1 32.7544 103.501 35.9649C103.879 38.9393 105.343 41.8665 106.735 44.5104C108.553 48.0042 110.961 51.5452 114.667 52.8908C119.601 54.6848 125.337 51.6396 127.887 47.06C130.365 42.4803 130.271 36.8384 129.067 31.7394Z" fill="#E2CBB7"/>
<path d="M113.322 24.0672C112.047 26.1918 110.253 27.9387 108.388 29.5675C106.948 30.8423 105.39 32.1642 104.823 34.0055C104.351 35.5163 104.634 37.1452 104.257 38.6796C103.147 38.8685 102.297 37.759 101.707 36.7911C100.834 35.3039 99.9368 33.7695 99.6063 32.0698C99.3702 30.8187 99.4646 29.5203 99.559 28.2692C99.7479 25.8613 100.031 23.4062 101.117 21.2816C102.274 19.039 104.304 17.2686 106.712 16.4423C108.695 15.7577 112.425 15.4272 114.171 16.9853C116.131 18.7322 114.408 22.3203 113.322 24.0672Z" fill="#534741"/>
<path d="M150.927 55.2986C149.959 53.6462 148.566 52.277 147.409 50.7426C144.199 46.5642 142.806 41.3236 140.563 36.5551C139.619 34.5722 138.415 32.542 136.48 31.4797C135.346 30.8659 133.222 30.6535 131.853 31.3617C131.876 30.9132 131.923 30.441 131.923 29.9925C132.018 25.3184 130.719 20.4319 127.415 17.127C124.11 13.8221 118.562 12.5709 114.596 15.026C111.905 16.7021 110.56 21.2817 114.266 22.7217C115.493 23.1938 117.051 22.9814 118.35 23.3591C120.309 23.9256 122.198 24.8463 123.779 26.1446C126.376 28.2456 128.146 31.5741 127.816 34.9262C128.17 34.4069 128.43 33.8404 128.595 33.2502C129.61 33.9112 129.114 35.4456 128.784 36.6023C128.146 38.9157 128.642 41.3708 129.138 43.7079C129.964 40.9695 130.767 38.1839 131.31 35.3984C132.23 36.8856 133.788 38.3492 134.473 39.317C138.415 44.7465 139.289 51.8757 138.887 58.5799C138.769 60.5629 138.557 62.6402 139.359 64.4579C140.422 66.8894 143.302 68.3294 145.946 67.9517C148.59 67.574 150.856 65.5202 151.753 63.0179C152.65 60.492 152.249 57.612 150.927 55.2986Z" fill="#534741"/>
<path d="M127.958 211.644C128.359 211.691 128.784 211.762 129.114 211.998C129.539 212.305 129.704 212.825 129.799 213.344C130.247 215.516 129.846 217.9 130.861 219.859C131.381 220.874 132.254 221.701 133.293 222.149C134.378 222.621 135.606 222.692 136.692 223.188C137.778 223.66 138.746 224.84 138.392 225.973C137.967 227.319 136.149 227.531 134.733 227.461C132.183 227.342 129.61 227.248 127.061 227.13C125.243 227.059 123.236 226.894 121.938 225.619C120.876 224.557 120.569 222.975 120.38 221.464C120.097 219.245 119.058 214.17 120.451 212.211C121.725 210.393 126.14 211.432 127.958 211.644Z" fill="#ACB18F"/>
<path d="M92.7604 209.236C93.2797 209.402 93.8463 209.614 94.1768 210.039C94.5781 210.535 94.5781 211.219 94.5781 211.857C94.5781 214.383 94.5544 216.908 94.5072 219.411C94.4836 220.52 94.46 221.653 94.0587 222.692C93.2089 224.911 90.6123 226.257 88.2752 225.785C87.1185 225.548 86.0561 224.958 85.041 224.345C84.6397 224.108 84.2385 223.849 83.9552 223.495C83.5775 222.999 83.5067 222.338 83.5067 221.724C83.4831 219.977 84.0024 218.278 84.5217 216.602C85.3007 214.052 85.8201 211.172 86.9296 208.741C87.8975 206.592 91.0371 208.646 92.7604 209.236Z" fill="#ACB18F"/>
<path d="M126.777 20.4791C125.927 19.7473 125.03 20.7388 124.511 21.3997C123.638 22.5328 122.693 23.7604 122.009 25.0115C121.773 25.4364 122.174 25.885 122.575 25.8614C122.741 26.0266 122.882 26.1682 123.071 26.2863C123.307 26.4043 123.614 26.4279 123.826 26.2863C124.369 25.9322 124.818 25.342 125.243 24.8935C125.809 24.3033 126.376 23.7132 126.942 23.123C127.863 22.226 127.84 21.3761 126.777 20.4791Z" fill="#DD7A8F"/>
<path d="M130.413 24.3269C130.177 23.7603 129.563 23.3354 128.949 23.6187C128.194 23.9728 127.509 24.8698 126.942 25.46C126.305 26.1682 125.715 26.9 125.196 27.7026C124.983 28.0331 125.243 28.4108 125.573 28.5052C125.597 28.7649 125.762 29.0246 126.116 29.2134C126.848 29.6383 127.509 28.9537 128.005 28.4816C128.689 27.8678 129.303 27.1596 129.87 26.4278C130.342 25.8377 130.743 25.1059 130.413 24.3269Z" fill="#DD7A8F"/>
<path d="M160.841 102.582C161.691 103.102 162.659 103.597 163.651 103.409C165.043 103.125 165.775 101.614 166.295 100.292C168.183 95.4295 170.048 90.543 171.936 85.68C173.66 81.242 175.407 76.6152 175.194 71.8467C175.1 69.6277 173.896 66.8893 171.7 67.0782C170.402 67.1726 169.458 68.3057 168.726 69.368C165.846 73.5227 165.657 77.8191 164.477 82.7529C164.005 84.7594 162.942 89.5279 161.809 91.2276C160.653 92.9272 158.622 91.5345 156.71 90.7791C155.129 90.1417 152.296 87.1673 151.186 85.8689C148.755 83.0125 148.165 82.4932 146.347 81.006C145.167 80.0381 144.978 80.1561 143.443 80.1089C135.394 79.8965 145.521 90.1181 147.197 91.8177C151.234 95.9961 155.837 99.6315 160.841 102.582Z" fill="#B79A7D"/>
<path d="M196.322 111.151C186.738 111.458 176.705 109.027 167.309 111.671C167.262 147.836 169.269 187.943 172.408 223.872C175.406 223.872 178.404 223.872 181.402 223.872C183.858 204.35 183.149 185.866 183.74 166.296C184.826 175.408 186.926 180.625 189.098 191.956C190.113 197.197 191.294 202.343 192.167 207.631C192.616 210.322 193.088 213.037 193.607 215.704C194.056 217.994 194.882 220.402 194.811 222.81C197.738 223.306 200.76 222.055 203.616 221.346C203.616 216.507 203.616 211.644 203.616 206.805C203.616 200.455 203.309 194.341 202.743 188.061C202.223 182.16 201.397 176.116 201.397 170.168C201.09 166.249 200.783 162.33 200.547 158.388C200.052 149.512 202.53 137.189 202.153 128.313C201.964 123.899 199.155 122.908 198.706 118.517C198.494 116.392 198.257 114.244 197.927 112.143C197.809 111.388 197.856 110.278 197.195 110.207C197.054 110.136 196.747 111.128 196.322 111.151Z" fill="#B79A7D"/>
<path d="M182.748 57.3287C184.519 55.9595 186.006 53.8822 186.997 51.1674C188.815 46.1392 190.09 40.7806 189.382 35.4691C188.532 29.3787 183.952 22.2259 177.177 21.7302C169.222 21.1636 166.885 30.9367 165.515 37.4993C164.43 42.7163 164.736 48.4291 167.498 52.9615C171.606 59.7602 178.098 60.9405 182.748 57.3287Z" fill="#B79A7D"/>
<path d="M172.527 27.9386C172.881 28.7177 173.825 29.1662 174.651 28.9301C175.477 28.7177 176.068 27.8442 175.973 26.9944C176.917 28.9537 180.01 29.355 181.426 27.7262C180.812 27.5609 181.049 28.694 181.615 28.9773C182.795 29.5203 184.212 29.5439 185.392 29.0009C184.519 29.4967 185.085 30.8186 185.723 31.5976C186.218 32.1878 186.69 32.8016 187.186 33.3917C186.313 34.7609 187.894 36.8619 189.452 36.4134C188.367 36.9327 188.06 38.5616 188.862 39.435C188.13 40.2848 187.611 41.3235 187.422 42.433C188.083 42.4802 188.343 43.5661 187.753 43.8966C188.272 44.2743 188.98 44.3451 189.57 44.0855C189.216 44.1563 189.358 44.7936 189.712 44.8409C190.066 44.8881 190.373 44.5812 190.562 44.2507C191.105 43.3537 191.27 42.2442 190.963 41.2291C192.073 40.7097 192.356 39.2934 192.498 38.0658C192.568 37.452 192.639 36.8383 192.71 36.2245C192.781 35.6343 192.852 35.0206 192.616 34.4776C192.38 33.9347 191.766 33.4862 191.199 33.6986C192.545 33.4862 193.277 31.5976 192.427 30.5354C194.315 29.8508 194.481 26.6639 192.663 25.7905C193.229 24.5865 192.97 23.0521 192.002 22.1315C191.058 21.2108 189.5 20.9511 188.319 21.5413C188.508 21.801 188.98 21.6121 189.075 21.3052C189.169 20.9983 189.004 20.6679 188.815 20.4082C187.564 18.6613 184.991 18.0003 183.031 18.921C181.922 17.3393 179.538 16.7964 177.862 17.7643C178.216 17.9531 178.688 17.7643 178.83 17.3866C177.862 16.4895 176.681 15.6633 175.336 15.6869C174.014 15.7105 172.692 17.0325 173.14 18.2836C171.087 17.2213 168.23 19.3223 168.632 21.5885C167.286 21.4941 165.822 21.7774 164.902 22.7688C163.981 23.7367 163.839 25.5308 164.878 26.3806C163.344 26.3334 161.856 27.5373 161.573 29.0482C161.29 30.559 162.234 32.2114 163.698 32.7308C162.423 33.6278 161.502 35.0206 161.148 36.5314C161.573 37.1216 162.116 37.5937 162.754 37.9242C162.376 38.113 162.187 38.5852 162.329 38.9865C163.155 39.6002 164.099 40.2612 165.138 40.1196C166.176 40.0015 166.979 38.6088 166.224 37.9006C167.782 37.1688 168.608 35.1622 168.018 33.557C168.395 33.4626 168.773 33.3681 169.174 33.2737C169.67 32.4711 169.977 31.1491 169.104 30.8658C169.93 31.5268 171.228 31.4796 172.031 30.795C172.857 30.134 173.046 28.8357 172.527 27.9386Z" fill="#333333"/>
<path d="M195.378 14.0817C196.393 14.483 196.204 16.1591 195.259 16.702C194.315 17.245 193.111 16.9145 192.12 16.4424C192.639 16.5604 192.923 17.2922 192.592 17.7171C191.105 18.1184 189.429 17.7879 188.178 16.8673C188.532 16.7256 188.886 17.245 188.744 17.5991C188.603 17.9532 188.178 18.1184 187.776 18.1892C186.525 18.3781 185.203 17.8351 184.471 16.7965C185.392 16.5132 186.029 18.024 185.392 18.7558C184.755 19.4876 183.598 19.4404 182.677 19.1099C182.418 19.0155 182.134 18.8738 182.04 18.6141C182.606 18.5905 182.913 19.3696 182.606 19.8417C182.3 20.3138 181.615 20.4082 181.119 20.1958C180.6 19.9833 180.222 19.5348 179.939 19.0627C180.081 19.3459 180.104 19.7001 179.986 19.9833C178.947 19.9361 178.027 19.1099 177.862 18.0948C177.696 17.9532 177.98 17.6227 178.145 17.7643C177.035 17.1978 176.091 16.2535 175.524 15.144C174.651 15.6633 173.353 15.3329 172.857 14.4358C172.149 14.5538 171.393 14.3414 170.874 13.8456C170.614 14.3178 169.977 14.483 169.481 14.3178C168.986 14.1525 168.584 13.704 168.348 13.2319C168.23 12.9958 168.159 12.7361 168.277 12.5001C168.419 12.2876 168.844 12.3112 168.844 12.5709C167.593 12.5237 166.507 11.4142 166.436 10.1866C166.814 10.1866 167.191 10.3519 167.427 10.6588C166.554 10.588 165.893 9.57288 166.2 8.74665C166.483 7.92042 167.64 7.54272 168.348 8.03846C167.829 7.49551 167.593 6.66928 167.782 5.93748C168.089 5.86666 168.419 5.77223 168.726 5.70141C167.805 5.34732 167.782 3.8129 168.655 3.36438C169.505 2.89225 170.732 3.60045 170.827 4.59192C170.001 4.19061 170.001 2.79782 170.803 2.3729C171.606 1.94799 172.763 2.72701 172.645 3.62405C172.692 2.98668 173.282 2.44373 173.919 2.49094C174.557 2.51455 175.1 3.12831 175.076 3.76568C175.218 3.03388 175.643 2.25488 176.398 2.11324C177.13 1.9716 177.909 2.96307 177.366 3.50602C177.059 2.51455 178.263 1.59389 179.278 1.75914C180.293 1.90078 181.096 2.7034 181.804 3.45881C181.898 2.84504 182.488 2.37291 183.102 2.39651C183.716 2.44373 184.259 2.98667 184.259 3.60044C183.81 3.15192 183.999 2.27848 184.589 2.04241C185.18 1.80635 185.911 2.3493 185.888 2.96306C186.313 2.23126 187.21 1.85356 188.012 2.04241C188.815 2.23127 189.452 2.98667 189.523 3.8129C189.57 3.26995 190.09 2.89225 190.633 2.79782C191.152 2.727 191.695 2.86864 192.214 3.01028C192.828 3.19913 193.489 3.41159 193.819 3.95454C194.15 4.49749 193.843 5.41814 193.206 5.37092C194.056 5.34732 195.023 5.39454 195.566 6.03191C196.109 6.69289 195.472 8.01485 194.717 7.66075C195.732 7.56633 196.865 8.01485 197.219 8.95911C197.573 9.90337 196.747 11.1781 195.755 10.9421C196.581 11.0601 197.243 11.9099 197.148 12.7361C197.054 13.4916 196.227 14.1525 195.378 14.0817Z" fill="#333333"/>
<path d="M195.944 65.6854L196.18 66.2289C196.11 66.0635 196.015 65.8744 195.944 65.6854Z" fill="#B79A7D"/>
<path d="M181.072 227.083C181.096 225.784 181.119 224.462 181.119 223.164C178.853 222.361 176.256 222.527 174.132 223.636C173.896 223.754 173.447 223.683 173.589 223.471C171.606 225.265 169.316 226.705 166.861 227.72C166.294 227.956 165.704 228.169 165.279 228.594C164.382 229.467 164.524 231.19 165.563 231.898C166.53 232.583 167.852 232.347 169.009 232.087C172.29 231.356 175.572 230.647 178.853 229.916C179.443 229.774 180.104 229.632 180.505 229.184C181.025 228.641 181.048 227.838 181.072 227.083Z" fill="#4D4D4D"/>
<path d="M203.852 222.952C203.38 221.724 202.908 220.52 202.436 219.293C200.028 219.387 197.691 220.52 196.133 222.362C195.968 222.55 195.519 222.645 195.566 222.409C194.386 224.793 192.805 226.988 190.916 228.853C190.491 229.278 190.019 229.703 189.783 230.246C189.287 231.403 190.042 232.937 191.27 233.221C192.427 233.48 193.56 232.772 194.528 232.111C197.29 230.222 200.075 228.31 202.861 226.422C203.38 226.068 203.899 225.69 204.112 225.124C204.372 224.415 204.112 223.66 203.852 222.952Z" fill="#4D4D4D"/>
<path d="M161.384 136.882C160.676 137.874 159.732 138.676 159 139.668C156.946 142.454 156.993 146.467 158.693 149.488C160.416 152.486 163.603 154.493 166.979 155.248C170.426 156.004 174.014 155.579 177.508 156.004C181.048 156.452 184.471 157.798 188.036 158.105C193.3 158.553 198.47 156.712 203.451 154.918C207.039 153.619 211.147 151.731 211.926 147.977C212.303 146.113 211.737 144.2 211.123 142.406C209.565 137.85 207.747 133.412 205.623 129.116C205.316 128.479 204.985 127.841 204.442 127.369C203.238 126.354 201.444 126.59 199.886 126.873C192.143 128.29 184.259 129.092 176.398 129.281C174.509 129.328 172.621 129.352 170.756 129.328C169.08 129.305 166.129 128.597 164.571 129.116C162.919 129.682 163.438 130.65 163.084 132.515C162.777 134.073 162.305 135.584 161.384 136.882Z" fill="#662E2A"/>
<path d="M188.296 63.1359C188.909 63.065 189.57 63.0178 190.161 63.1831C191.459 63.5608 191.955 64.8355 192.262 65.945C193.418 69.9817 194.551 74.0185 195.708 78.0552C196.629 81.2656 197.526 84.4525 198.446 87.663C201.232 97.4361 204.018 107.256 205.694 117.195C206.237 120.452 206.685 123.734 206.992 127.015C207.016 127.369 207.063 127.77 206.85 128.077C206.591 128.455 206.071 128.644 205.576 128.809C191.766 133.2 175.973 135.136 162.305 130.485C162.588 123.427 162.872 116.392 163.178 109.334C163.438 103.196 163.674 97.082 164.359 90.9679C165.209 83.2486 166.767 75.6001 168.986 68.0932C169.316 67.0073 169.623 63.5136 170.756 62.8526C171.936 62.168 174.203 63.3719 175.643 63.5844C179.821 64.1982 184.141 63.5608 188.296 63.1359Z" fill="#AA4A4D"/>
<path d="M193.82 66.3464C198.801 77.2998 203.805 88.2296 208.786 99.1829C209.282 100.269 209.801 101.426 209.66 102.606C209.518 103.975 208.55 105.108 207.629 106.147C202.247 112.261 196.605 118.564 189.146 121.845C187.942 122.388 186.62 122.837 185.298 122.671C183.976 122.506 182.677 121.562 182.512 120.24C182.3 118.422 184.117 117.124 185.652 116.132C189.925 113.418 193.749 109.948 196.888 105.958C198.092 104.424 199.225 102.724 199.438 100.765C199.674 98.6164 198.73 96.5154 197.785 94.5561C194.646 87.9227 190.987 81.7142 187.517 75.2932C186.218 72.909 185.605 70.926 187.163 68.4946C188.461 66.5352 192.285 62.9706 193.82 66.3464Z" fill="#B79A7D"/>
<path d="M183.079 31.7629C182.748 32.3767 182.394 33.0376 182.418 33.7458C182.441 34.454 182.961 35.2094 183.669 35.1858C182.418 35.8232 182.3 37.9006 183.48 38.7032C182.63 39.4586 182.819 41.0639 183.81 41.6304C183.102 42.3386 183.409 43.7786 184.377 44.1327C183.692 44.5576 183.433 45.5491 183.81 46.2573C184.188 46.9655 185.132 47.3196 185.888 47.0127C185.463 47.4612 185.038 47.9569 185.014 48.5707C184.991 49.1845 185.628 49.8218 186.171 49.5622C185.298 50.2467 185.368 51.8048 186.313 52.4186C187.233 53.0323 188.697 52.4658 188.98 51.3799C189.405 51.97 190.326 52.0172 190.94 51.6159C191.553 51.2146 191.884 50.5064 192.025 49.7982C192.828 49.8218 193.678 49.751 194.315 49.2789C194.953 48.8068 195.26 47.7917 194.717 47.1779C195.425 47.2487 196.157 46.8474 196.487 46.21C196.818 45.5727 196.723 44.7464 196.251 44.2035C197.148 43.8494 197.974 43.1648 198.116 42.2206C198.258 41.2763 197.455 40.214 196.511 40.3792C197.856 39.7891 198.635 38.1366 198.21 36.7203C198.092 36.3426 197.644 35.9412 197.384 36.2481C198.163 35.658 198.706 34.7373 198.659 33.7694C198.612 32.8016 197.809 31.8809 196.841 31.8337C197.597 31.4088 197.927 30.3465 197.549 29.5439C197.172 28.7649 196.109 28.3636 195.307 28.7177C195.401 28.1039 195.496 27.4901 195.566 26.9C195.59 26.6875 195.614 26.4278 195.472 26.2626C195.354 26.121 195.142 26.0974 194.929 26.0974C194.292 26.0737 193.631 26.1682 193.017 26.3806C193.206 25.7433 192.875 25.0115 192.285 24.7282C191.695 24.4449 190.916 24.6101 190.515 25.1295C188.603 23.5479 185.274 24.3033 184.212 26.5459C182.819 25.5072 181.827 27.4665 181.568 28.576C181.426 29.237 181.403 30.0396 181.686 30.6534C181.757 30.7714 182.89 32.117 183.079 31.7629Z" fill="#333333"/>
<path d="M113.369 115.212C113.439 115.589 113.51 115.967 113.699 116.298C113.888 116.628 114.219 116.911 114.596 116.911C114.762 116.911 114.95 116.864 115.116 116.911C115.375 116.959 115.564 117.195 115.682 117.454C116.107 118.375 115.871 119.555 116.556 120.287C117.099 120.877 118.043 120.925 118.798 120.665C119.436 120.429 120.026 119.933 120.262 119.296C120.474 118.635 120.309 117.903 120.073 117.266C119.247 115.07 117.618 113.158 117.287 110.821C117.24 110.49 117.217 110.113 117.004 109.853C116.65 109.428 116.013 109.452 115.47 109.57C114.691 109.735 112.967 110.066 112.708 110.986C112.543 111.529 112.873 112.379 112.991 112.922C113.109 113.677 113.227 114.456 113.369 115.212Z" fill="#F9E9DE"/>
<path d="M16.8892 53.2213C16.5351 51.8049 16.3935 50.3649 15.9213 48.9721C15.8033 48.5944 15.638 48.2167 15.3312 47.957C15.1187 47.7682 14.8354 47.6738 14.5994 47.5321C13.3482 46.7531 13.2302 44.7229 11.8846 44.18C11.1056 43.8495 10.1613 44.18 9.50037 44.723C8.46168 45.5492 7.80068 46.8475 7.77707 48.1695C7.72986 49.7983 8.57969 51.3328 9.54755 52.6311C10.5154 53.9295 11.6722 55.1334 12.404 56.5734C12.7109 57.1635 12.9469 57.8009 13.3246 58.3439C13.7023 58.8868 14.2688 59.359 14.9298 59.4062C15.7324 59.477 16.4171 58.934 17.0545 58.4383C17.8807 57.7773 19.0137 57.2816 18.2583 56.1957C17.5974 55.275 17.1725 54.3308 16.8892 53.2213Z" fill="#F9E9DE"/>
<path d="M80.1309 160.536C80.2961 163.393 80.485 166.249 81.0279 169.058C81.4528 171.254 82.0902 173.402 82.7512 175.526C86.5282 187.66 91.2495 199.511 96.8914 210.912C97.3635 211.88 97.93 212.919 98.9215 213.344C100.48 214.005 102.321 212.683 102.84 211.054C103.36 209.425 102.935 207.678 102.533 206.026C100.409 197.598 98.2842 189.194 96.1596 180.767C95.6403 178.737 95.1445 176.707 94.8376 174.629C94.4836 172.198 94.4127 169.743 94.3655 167.288C94.2475 162.755 94.1295 158.199 94.6253 153.69C94.9794 150.527 95.6167 147.387 96.2069 144.248C97.2692 138.606 98.1425 132.917 98.8035 127.204C98.9924 125.575 99.1812 123.899 98.8035 122.294C97.8829 118.186 93.5158 115.495 89.3138 115.495C86.1978 115.495 82.8219 116.699 80.3432 118.564C78.2659 120.146 78.502 121.656 78.62 124.064C78.9977 131.807 79.1157 139.574 79.4462 147.317C79.6586 151.731 79.8712 156.145 80.1309 160.536Z" fill="#ADADAD"/>
<path d="M56.9493 129.352C56.9965 125.929 57.0673 122.459 57.9407 119.249C58.8142 116.038 60.561 113.064 63.0869 111.813C66.1322 110.302 69.9093 111.624 72.3171 114.575C74.725 117.525 75.8345 121.822 75.7165 125.906C75.6456 128.054 75.2679 130.155 75.0318 132.279C74.5597 136.245 74.5833 140.306 74.4889 144.319C74.2056 156.901 73.0253 169.365 71.845 181.829C70.9951 190.729 70.1689 199.629 69.3191 208.528C69.1066 210.724 68.9177 212.943 68.7053 215.138C68.4456 217.688 68.186 218.585 65.849 218.349C62.9218 218.065 62.7801 215.657 62.426 212.494C60.3959 194.718 58.6253 176.896 57.6575 159.025C57.1145 149.158 56.7841 139.22 56.9493 129.352Z" fill="#ADADAD"/>
<path d="M48.5927 125.929C47.2235 128.975 45.0753 131.666 44.0367 134.829C43.0216 138.016 43.5646 142.123 46.4918 143.729C49.7022 145.499 53.9986 143.398 57.2799 145.027C59.735 146.231 60.9388 149.205 63.3703 150.48C65.4949 151.589 68.068 151.165 70.3106 150.338C72.5532 149.512 74.6542 148.285 76.9913 147.812C79.4935 147.293 82.1611 147.694 84.4273 148.898C86.3395 149.937 88.1099 151.566 90.2817 151.613C94.224 151.684 96.679 146.585 100.598 146.325C102.25 146.231 103.832 147.01 105.484 146.892C108.671 146.656 110.678 143.068 110.512 139.881C110.347 136.694 108.718 133.814 107.444 130.887C105.98 127.511 104.965 123.946 104.446 120.311C104.021 117.242 103.643 113.654 100.999 112.072C99.677 111.27 98.0483 111.175 96.5138 111.175C85.9381 111.057 75.4568 113.205 64.8811 112.804C61.2457 112.662 56.0052 110.325 53.4557 113.418C50.6465 116.888 50.3632 121.963 48.5927 125.929Z" fill="#F2F2F2"/>
<path d="M61.0333 209.992C60.5848 211.149 60.9389 212.423 61.2222 213.627C61.7651 215.941 62.0011 218.348 61.9067 220.733C61.9067 220.922 61.8832 221.11 61.8123 221.299C61.6235 221.724 61.1042 221.889 60.6556 221.984C58.8616 222.385 56.9966 222.456 55.2026 222.196C54.0222 222.031 52.7002 221.771 51.7796 222.527C51.2366 222.952 50.977 223.636 50.7882 224.297C50.5049 225.218 50.316 226.139 50.1744 227.083C50.0091 228.31 50.0327 229.774 51.0242 230.529C51.6615 231.002 52.4878 231.072 53.2904 231.096C58.177 231.261 63.0871 231.12 67.9736 230.624C68.8942 230.529 69.933 230.341 70.4051 229.538C70.6648 229.089 70.6648 228.546 70.6648 228.027C70.6412 224.297 70.5467 220.567 70.3815 216.838C70.2871 214.973 70.169 213.108 70.051 211.243C70.0038 210.676 70.1455 209.756 69.5317 209.472C69.0124 209.213 67.596 209.709 67.0294 209.779C66.4393 209.874 61.0805 209.874 61.0333 209.992Z" fill="#736357"/>
<path d="M102.321 203.335C103.336 206.805 104.375 210.275 105.39 213.745C105.768 214.996 106.145 216.271 106.759 217.428C107.113 218.089 107.538 218.702 107.939 219.316C109.072 221.087 109.946 223.022 110.536 225.053C110.654 225.501 110.772 225.95 110.725 226.422C110.654 226.965 110.371 227.46 110.04 227.885C108.506 229.845 105.838 230.836 103.407 230.34C102.911 230.246 102.415 230.081 102.038 229.774C101.542 229.396 101.259 228.806 101.046 228.239C99.3702 224.085 99.4882 219.363 97.6232 215.28C97.1747 214.288 96.6082 213.344 96.1597 212.329C95.8292 211.573 95.5695 210.794 95.3099 210.015C95.003 209.095 94.2239 207.655 94.2239 206.687C94.2239 205.766 95.3098 205.554 96.136 205.2C98.1662 204.35 100.22 203.736 102.321 203.335Z" fill="#736357"/>
<path d="M49.9618 114.999C50.3159 115.354 50.8825 115.448 51.2838 115.755C51.7795 116.133 51.992 116.841 51.7559 117.431C51.5435 117.997 50.9534 118.47 51.0714 119.06C51.2131 119.862 52.3697 119.933 53.0779 119.555C53.7861 119.178 54.4943 118.564 55.2969 118.682C56.194 118.8 56.6897 119.768 57.1147 120.594C57.5396 121.397 58.295 122.294 59.1684 122.058C59.8058 121.893 60.2307 121.161 60.8916 121.09C61.8831 120.972 62.3553 122.199 62.8746 123.026C63.512 124.041 64.7867 124.749 65.9198 124.348C66.8877 123.993 67.525 122.955 68.5401 122.837C69.5788 122.719 70.4051 123.616 71.1369 124.348C71.8687 125.079 73.0017 125.788 73.8752 125.245C74.1585 125.079 74.3474 124.82 74.5599 124.584C75.6222 123.427 77.3689 122.955 78.8797 123.403C79.8476 123.687 80.6739 124.3 81.5945 124.631C82.5388 124.985 83.7191 124.985 84.3801 124.253C84.687 123.899 84.8523 123.451 85.1591 123.096C85.9382 122.247 87.3073 122.459 88.3932 122.86C89.4791 123.238 90.683 123.734 91.7217 123.238C92.7603 122.719 93.2797 121.326 94.4365 121.113C95.121 120.995 95.782 121.326 96.4666 121.373C97.6469 121.444 98.78 120.523 98.9452 119.367C99.7715 119.437 100.645 119.485 101.424 119.131C102.179 118.776 102.77 117.879 102.439 117.1C103.549 117.148 104.304 115.519 103.525 114.716C103.124 114.315 102.439 114.102 102.297 113.536C102.179 113.04 102.51 112.403 102.109 112.096C100.999 112.568 100.338 113.677 99.4883 114.527C98.1663 115.849 96.3485 116.51 94.5308 116.982C87.7558 118.776 80.6031 118.21 73.6156 117.596C68.6582 117.171 63.6064 116.699 58.9559 114.929C58.1533 114.622 57.3507 114.291 56.5245 114.079C54.9193 113.677 53.2432 113.323 51.6616 112.969C50.5521 112.71 48.8523 113.866 49.9618 114.999Z" fill="white"/>
<path d="M76.5664 29.9925C75.3152 31.102 73.6156 31.527 72.0103 32.0227C70.4051 32.5184 68.7526 33.1322 67.7139 34.4542C66.9821 35.3748 66.6752 36.5551 66.3683 37.6882C65.8018 39.7656 65.2589 42.079 66.2503 44.0148C66.7461 45.0062 67.6195 45.7853 67.9736 46.8476C68.4221 48.1695 67.9499 49.6095 67.3361 50.8606C66.7224 52.1118 65.967 53.3393 65.7782 54.7085C65.6365 55.7 65.8018 56.7623 65.5185 57.7065C64.9992 59.4062 63.1106 60.3977 61.3402 60.4685C59.5697 60.5393 57.8464 59.8547 56.194 59.1937C55.0609 58.7452 53.8097 58.1314 53.5264 56.9511C53.3376 56.0777 53.7625 55.2042 54.3055 54.496C54.8484 53.7879 55.533 53.1977 55.958 52.4187C56.1704 52.0174 56.3356 51.5452 56.1467 51.1203C55.9106 50.601 55.2025 50.4121 54.9664 49.8928C54.6831 49.2554 55.2262 48.5472 55.8163 48.1459C56.3829 47.7446 57.091 47.3669 57.2563 46.6823C57.5396 45.5256 56.0759 44.6758 55.7218 43.5427C55.3205 42.3151 56.2648 41.0876 57.1383 40.1433C58.0117 39.1991 58.9323 37.9715 58.531 36.744C58.2949 36.0358 57.6339 35.3984 57.7992 34.6902C58.0353 33.746 59.4044 33.6988 60.1126 33.0378C61.3165 31.9283 60.207 29.9217 60.5611 28.3401C60.9388 26.664 62.9219 25.767 63.3468 24.1145C63.4648 23.666 63.4648 23.1703 63.6301 22.7454C63.8425 22.2024 64.3146 21.8011 64.7631 21.4234C66.392 20.0306 68.1152 18.5906 70.2162 18.1893C71.609 17.906 73.0489 18.1185 74.4181 18.4018C75.6456 18.6614 76.9204 19.0155 77.7467 19.9598C79.6116 22.108 78.6201 28.1985 76.5664 29.9925Z" fill="#C6B697"/>
<path d="M25.057 59.0521C31.5015 60.9642 38.2294 62.8055 44.8864 61.8376C52.4405 60.7281 59.3099 56.0777 66.9348 56.0068C67.3833 56.0068 67.8791 56.0304 68.2568 56.2665C68.5636 56.479 68.7761 56.8095 68.9649 57.14C70.7118 60.3268 71.1132 64.2219 70.0981 67.7156C69.5316 69.6514 68.5164 71.4691 67.0764 72.8855C66.0141 73.9241 64.7394 74.7032 63.4175 75.3405C58.9086 77.5359 53.7152 78.1733 48.7106 77.6776C43.7061 77.2054 38.8431 75.671 34.1927 73.7589C30.6517 72.2953 27.2052 70.5956 24.0891 68.4002C20.6426 65.9452 17.6446 62.8999 14.6938 59.8547C14.5285 59.6894 14.3632 59.5006 14.3396 59.2645C14.2452 57.5885 17.6681 56.1957 18.9901 56.5026C20.9966 56.9983 22.9796 58.4619 25.057 59.0521Z" fill="#D5AFCB"/>
<path d="M83.365 54.2127C84.4509 53.9294 85.6076 53.5517 86.7171 53.7642C88.1807 54.0239 89.0542 55.1098 89.7152 56.1248C94.2712 63.0887 96.0416 70.8553 97.6233 78.5274C99.8895 89.4335 102.888 99.5135 102.817 110.561C102.793 113.205 102.463 116.18 99.7715 117.856C98.4024 118.706 96.6554 119.083 94.9321 119.343C87.5197 120.476 78.9034 120.854 71.3729 120.334C68.068 120.098 64.7396 119.862 61.5527 119.201C57.8701 118.446 54.1638 116.959 52.4405 114.386C50.9061 112.119 51.1894 109.405 51.5671 106.879C52.9362 97.2001 54.872 87.545 57.3743 77.9844C59.0504 71.5634 60.9862 65.1661 62.8983 58.7924C63.7481 55.936 65.0464 52.7491 69.6261 53.5989C74.4654 54.4724 78.2896 55.5347 83.365 54.2127Z" fill="#D5AFCB"/>
<path d="M78.4076 52.9617C76.8967 53.1033 75.0791 53.3866 73.5919 53.1269C69.4608 52.3951 66.9821 48.146 64.8575 44.4161C62.9217 41.0168 63.5119 34.7611 64.1493 30.8424C64.3618 29.5205 64.6215 28.1513 65.3533 27.0418C66.8169 24.8936 69.626 24.4215 72.1283 24.3034C76.5191 24.0674 81.0988 24.3506 84.8758 26.6405C93.8463 32.0227 89.0541 51.923 78.4076 52.9617Z" fill="#F9E9DE"/>
<path d="M96.986 61.6724C108.223 74.892 112.779 92.0303 117.028 108.578C117.122 108.932 117.217 109.334 117.075 109.664C116.792 110.443 114.195 110.821 113.015 111.199C112.472 111.364 111.905 111.152 111.693 110.632C108.6 103.196 104.752 94.8867 99.3701 87.4506C95.0501 81.4782 92.0758 75.9307 85.1591 72.3897C82.2791 70.9025 81.6181 69.5097 81.8305 66.252C82.043 63.0652 84.1911 59.7603 86.8115 58.2258C90.7537 55.8652 94.5073 58.7452 96.986 61.6724Z" fill="#D5AFCB"/>
<path d="M70.3815 62.664C71.2077 66.5827 71.7742 70.5249 72.3643 74.4908C72.4588 75.081 72.6004 75.742 73.1198 76.0016C73.8752 76.403 74.725 75.6475 75.1971 74.9393C77.8175 71.0207 78.2188 66.0397 80.0601 61.6961C80.8155 59.8784 81.8542 58.1552 82.35 56.243C82.4444 55.8889 82.5152 55.5112 82.3736 55.1571C82.0903 54.4253 81.0987 54.3545 80.3197 54.3781C79.0922 54.4253 77.8648 54.4017 76.6136 54.3545C75.6457 54.3073 74.6778 54.2601 73.7572 53.9768C72.6241 53.6463 71.3258 52.7729 70.1218 52.7965C69.0123 52.8437 69.0831 53.6463 69.0831 54.5906C69.1068 57.3525 69.8149 60.0201 70.3815 62.664Z" fill="#F7F7F7"/>
<path d="M67.171 55.6528C67.2654 56.0777 67.7375 56.361 67.8083 56.8095C67.8791 57.3052 67.3834 57.7065 66.9112 57.8718C66.4391 58.0134 65.8962 58.037 65.4713 58.2967C65.0463 58.5564 64.8339 59.2409 65.2116 59.5478C65.3769 59.6659 65.5893 59.6895 65.8018 59.7367C66.5808 59.9255 67.289 60.7282 67.0057 61.4836C66.8169 61.9557 66.3212 62.239 65.9907 62.6403C65.6602 63.0416 65.5657 63.7734 66.0378 63.9622C66.203 64.0331 66.392 64.0095 66.5572 64.0095C67.171 64.0331 67.7611 64.5996 67.7139 65.2134C67.6667 65.7327 67.2417 66.1104 66.9112 66.4881C66.5807 66.8658 66.2975 67.4324 66.5572 67.8809C66.8169 68.3294 67.4779 68.3766 67.7375 68.8252C68.3277 69.793 66.3919 71.0206 67.0765 71.9176C67.407 72.3425 68.1388 72.2717 68.4693 72.7202C68.8706 73.2632 68.304 73.995 67.7847 74.4199C67.2653 74.8448 66.6988 75.5766 67.1001 76.1196C67.407 76.5209 68.0207 76.4501 68.5164 76.4265C69.0122 76.3792 69.6732 76.5445 69.744 77.0402C69.7912 77.4887 69.2956 77.8192 69.2484 78.2914C69.1304 79.1884 70.6176 79.4009 71.0189 80.2035C71.5146 81.2422 70.0273 82.2336 70.0746 83.3904C70.0982 84.3346 71.1604 84.9956 71.2076 85.9162C71.2548 86.648 70.6647 87.3326 70.83 88.0644C70.8772 88.2533 70.9717 88.4421 71.0189 88.631C71.0897 89.0795 70.8535 89.5044 70.6411 89.9057C70.3578 90.5195 70.1925 91.2277 70.4522 91.8415C70.7119 92.4552 71.5617 92.8329 72.1047 92.4552C72.506 92.172 72.624 91.5818 72.5532 91.0861C72.506 90.5903 72.3407 90.0946 72.3879 89.5753C72.4824 88.3713 73.7099 87.4507 73.6863 86.2703C73.6627 85.6094 73.285 85.0192 73.2614 84.3582C73.2142 83.2959 74.1585 82.3045 73.946 81.2658C73.828 80.652 73.3322 80.1799 73.1434 79.5897C72.8129 78.5746 73.4503 77.5124 73.4975 76.4265C73.5211 75.9071 73.3794 75.3878 73.2614 74.8684C72.8365 73.0979 72.388 71.3275 71.963 69.557C71.8686 69.132 71.7505 68.7071 71.7741 68.2586C71.7741 67.8573 71.8922 67.456 71.9394 67.0783C72.1519 65.5911 71.609 64.1275 71.2549 62.6875C70.7591 60.799 70.5467 58.8396 70.5703 56.8803C70.5939 55.9124 70.7355 54.1892 69.5551 53.8823C68.7289 53.6698 66.9349 54.6613 67.171 55.6528Z" fill="white"/>
<path d="M84.9703 55.9832C85.4896 56.9983 85.0882 58.2967 84.3092 59.1465C84.144 59.3353 83.9315 59.5242 83.8607 59.7603C83.5066 60.7045 85.0411 61.5071 84.8523 62.4986C84.6398 63.6317 82.6569 63.4429 82.232 64.5051C81.9959 65.1189 82.3972 65.7563 82.7513 66.2992C83.1054 66.8422 83.4122 67.5976 82.9873 68.1169C82.3027 68.9668 80.5087 68.0461 79.9657 68.9904C79.6588 69.5097 80.0365 70.1471 80.249 70.7137C80.5087 71.3746 80.4615 72.2481 79.8713 72.6258C79.234 73.0271 78.266 72.673 77.6994 73.1687C77.2981 73.5228 77.2982 74.1602 77.2745 74.7031C77.2509 75.2461 77.0857 75.9071 76.5664 76.0723C76.4247 76.1195 76.2595 76.1195 76.1415 76.214C75.9998 76.332 75.9762 76.5444 75.9762 76.7333C75.9526 77.4415 75.9526 78.1497 75.929 78.8343C75.3624 78.669 74.6779 79.1412 74.6543 79.7549C74.6543 80.0618 74.7723 80.3923 74.6306 80.652C74.4654 80.9589 74.0168 81.0297 73.7099 80.8644C73.4031 80.6992 73.1907 80.3923 73.0254 80.0854C72.5297 79.1648 72.152 78.0789 72.4825 77.0874C72.7422 76.3084 73.4031 75.7418 73.9225 75.0809C74.8431 73.9241 75.3389 72.5078 75.8346 71.1386C77.1329 67.5976 78.5493 64.0802 80.0601 60.6101C80.7683 59.0048 81.4293 57.3052 82.1847 55.7472C82.7985 54.6613 84.3565 54.7557 84.9703 55.9832Z" fill="white"/>
<path d="M84.262 32.9671C85.7728 33.9349 87.0239 35.4221 87.4488 37.169C88.0153 39.5061 87.0476 41.9611 85.7492 43.9913C84.4744 46.0214 82.8691 47.8863 81.9484 50.1054C81.5471 51.0732 81.2875 52.1119 81.0986 53.1506C80.7682 54.9447 80.6501 56.8332 81.2167 58.5565C81.7832 60.2797 83.1997 61.8142 84.9938 62.1446C86.7879 62.4751 88.8416 61.2476 89.054 59.4535C89.172 58.4856 88.8181 57.3525 89.4554 56.5971C90.3053 55.6057 92.3354 56.0542 92.7839 54.8266C93.2324 53.6227 91.4383 52.7021 91.273 51.4037C91.0606 49.6568 93.8462 48.9486 94.2475 47.2254C94.6016 45.7145 92.9255 44.1801 93.4684 42.7401C93.7281 42.0555 94.4127 41.6542 94.9556 41.1585C95.4986 40.6628 95.9471 39.8838 95.593 39.2464C95.4514 39.0103 95.2389 38.8215 95.0736 38.609C94.6723 38.0188 94.7668 37.2398 94.8376 36.5316C95.1681 33.1323 94.3419 29.6149 92.5242 26.7114C91.816 25.5782 90.9661 24.5632 90.0691 23.5717C89.054 22.4858 87.9918 21.4471 86.7406 20.6445C84.5216 19.1809 81.8305 18.4963 79.2102 18.6616C78.1715 18.7324 77.1327 18.9448 76.2121 19.4406C73.6626 20.8334 72.5767 25.0825 74.0167 27.5848C76.3065 31.5035 80.8154 30.7245 84.262 32.9671Z" fill="#C6B697"/>
<path d="M20.9967 44.6522C21.1619 45.0299 21.3508 45.4784 21.1856 45.8797C21.0675 46.1157 20.8551 46.281 20.6426 46.4462C16.1574 49.6095 11.6013 52.9144 6.92725 55.7944C6.62036 55.9833 6.28989 56.1957 5.91219 56.2901C5.18039 56.479 4.68466 57.0691 4.07089 56.597C3.45712 56.1485 2.442 54.378 2.04069 53.7406C1.45053 52.7964 0.64794 51.5216 0.223023 50.5302C0.0813846 50.2233 -0.036639 49.8692 0.0105739 49.5387C0.0577868 49.0902 0.411878 48.7361 0.742368 48.4056C1.82827 47.3669 3.26823 46.6823 4.40134 45.7144C6.03019 44.3217 7.75346 43.3066 9.57116 42.1499C10.8223 41.3472 12.0498 40.285 13.3718 39.6004C14.2688 39.1519 15.3312 38.3492 16.299 38.1368C17.0072 37.9951 17.3377 38.4909 17.6918 39.0102C18.9193 40.8043 20.0996 42.6692 20.9967 44.6522Z" fill="#FF8FA0"/>
<path d="M19.9816 44.7229C20.1233 45.0534 20.2885 45.4547 20.1469 45.7852C20.0525 45.9977 19.8636 46.1393 19.6984 46.2574C15.9449 48.9485 12.4748 51.4744 8.55612 53.9059C8.29645 54.0711 7.44661 54.7321 7.13972 54.8029C6.52595 54.9681 6.69119 54.9681 6.17185 54.5668C5.65251 54.1655 4.77904 52.6547 4.44855 52.0882C3.95282 51.2855 3.26829 50.176 2.89059 49.279C2.77256 48.9957 2.65448 48.7124 2.7017 48.4292C2.74891 48.0278 3.03219 47.721 3.29186 47.4613C4.1889 46.5642 5.06235 46.3046 6.03022 45.4783C7.39939 44.2744 8.83935 43.4246 10.3502 42.4331C11.3889 41.7485 12.4276 40.8279 13.5135 40.2613C14.2453 39.8836 15.1423 39.1754 15.9685 39.0338C16.5587 38.9158 16.842 39.3643 17.1488 39.8128C18.1875 41.3708 19.2026 42.9997 19.9816 44.7229Z" fill="white"/>
<path d="M19.9816 44.7229C20.1233 45.0534 20.2885 45.4547 20.1469 45.7852C20.0525 45.9977 19.8636 46.1393 19.6984 46.2574C15.9449 48.9485 12.4748 51.4744 8.55612 53.9059C8.29645 54.0711 7.44661 54.7321 7.13972 54.8029C6.52595 54.9681 6.69119 54.9681 6.17185 54.5668C5.65251 54.1655 4.77904 52.6547 4.44855 52.0882C3.95282 51.2855 3.26829 50.176 2.89059 49.279C2.77256 48.9957 2.65448 48.7124 2.7017 48.4292C2.74891 48.0278 3.03219 47.721 3.29186 47.4613C4.1889 46.5642 5.06235 46.3046 6.03022 45.4783C7.39939 44.2744 8.83935 43.4246 10.3502 42.4331C11.3889 41.7485 12.4276 40.8279 13.5135 40.2613C14.2453 39.8836 15.1423 39.1754 15.9685 39.0338C16.5587 38.9158 16.842 39.3643 17.1488 39.8128C18.1875 41.3708 19.2026 42.9997 19.9816 44.7229Z" fill="white"/>
<path d="M19.9816 44.7229C20.1233 45.0534 20.2885 45.4547 20.1469 45.7852C20.0525 45.9977 19.8636 46.1393 19.6984 46.2574C15.9449 48.9485 12.4748 51.4744 8.55612 53.9059C8.29645 54.0711 7.44661 54.7321 7.13972 54.8029C6.52595 54.9681 6.69119 54.9681 6.17185 54.5668C5.65251 54.1655 4.77904 52.6547 4.44855 52.0882C3.95282 51.2855 3.26829 50.176 2.89059 49.279C2.77256 48.9957 2.65448 48.7124 2.7017 48.4292C2.74891 48.0278 3.03219 47.721 3.29186 47.4613C4.1889 46.5642 5.06235 46.3046 6.03022 45.4783C7.39939 44.2744 8.83935 43.4246 10.3502 42.4331C11.3889 41.7485 12.4276 40.8279 13.5135 40.2613C14.2453 39.8836 15.1423 39.1754 15.9685 39.0338C16.5587 38.9158 16.842 39.3643 17.1488 39.8128C18.1875 41.3708 19.2026 42.9997 19.9816 44.7229Z" fill="white"/>
<path d="M3.74035 51.7577C3.50429 51.6161 3.22104 51.5689 2.96137 51.6397C2.65448 51.7341 2.442 51.9938 2.34758 52.3007C2.27676 52.6076 2.32399 52.9381 2.44202 53.2213C2.48924 53.3394 2.56005 53.4574 2.65447 53.5518C2.81972 53.6935 3.03215 53.7171 3.221 53.6935C3.40986 53.6699 3.59873 53.5754 3.76398 53.4574C3.92922 53.3394 4.09445 53.1977 4.18888 53.0089C4.47216 52.5132 4.16527 52.0174 3.74035 51.7577Z" fill="#E5E5E5"/>
<path d="M19.6511 42.5983C19.6984 42.6691 19.7456 42.7399 19.7456 42.8344C19.7456 42.9288 19.6747 42.9996 19.5803 42.9996C19.5095 42.9996 19.4623 42.9288 19.4387 42.858C19.2262 42.5039 19.0138 42.1498 18.7777 41.7721C18.7305 41.6777 18.6361 41.4888 18.7777 41.418C18.9193 41.3708 19.0138 41.536 19.061 41.6304C19.2734 41.9609 19.4623 42.2914 19.6511 42.5983Z" fill="#8A8A8A"/>
<path d="M18.6599 41.0167C18.6127 40.9458 18.5182 40.9458 18.4473 40.9931C18.4 41.0403 18.4 41.1585 18.4709 41.2057C18.5417 41.253 18.6362 41.2293 18.6835 41.1585C18.6835 41.1112 18.6835 41.064 18.6599 41.0167Z" fill="#8A8A8A"/>
<path d="M10.3738 52.9379C10.3265 53.0323 10.2794 53.1032 10.1849 53.1504C10.0669 53.1976 9.92525 53.1032 9.80722 53.0323C9.40591 52.7255 9.00458 52.4186 8.60327 52.1117C8.22557 51.8284 7.84785 51.5451 7.63539 51.1438C7.54097 50.955 7.4938 50.6717 7.68265 50.5773C7.80069 50.5301 7.9187 50.5537 8.03674 50.6245C8.48526 50.8133 8.72133 51.1674 9.07543 51.4979C9.21707 51.6396 9.54755 51.9701 9.7364 52.0645C9.92526 52.1353 10.0196 51.9228 10.1377 51.7576C10.2321 51.616 10.3265 51.2383 10.3501 51.073C10.3973 50.7189 10.421 50.6481 10.4918 50.4356C10.539 50.294 10.5626 50.294 10.6806 50.2232C11.3416 49.7983 11.0111 51.1438 10.9639 51.3799C10.8223 51.9228 10.6334 52.4422 10.3738 52.9379Z" fill="#B79A7D"/>
<path d="M12.0971 46.2101C12.1207 45.9268 12.2387 45.6672 12.2623 45.3839C12.2623 45.1478 12.1915 44.8882 12.0026 44.7465C11.8138 44.6049 11.5305 44.5813 11.3417 44.7229L11.5541 44.5813C11.7902 44.5105 12.0734 44.4396 12.2859 44.5813C12.4275 44.6993 12.4983 44.8882 12.5692 45.0534C12.6636 45.3131 12.7817 45.5491 12.9705 45.738C13.1121 45.8796 13.301 45.9741 13.4662 46.0921C13.6315 46.2101 13.7731 46.399 13.7731 46.6114C13.7731 46.7767 13.6551 46.9419 13.5135 47.0363C13.3718 47.1308 13.2065 47.178 13.0177 47.2016C12.8761 47.2252 12.7108 47.2252 12.5692 47.1544C12.4275 47.0836 12.3095 46.9655 12.2387 46.8239C12.1207 46.6586 12.0735 46.4226 12.0971 46.2101Z" fill="#534741"/>
<path d="M6.80916 45.1714C7.39932 47.1543 7.56462 47.0363 8.48527 47.8153C8.65051 47.957 9.00458 48.193 9.19343 48.2875C9.52392 48.4763 9.92524 48.5471 10.3029 48.6179C10.3738 48.6415 10.4682 48.6415 10.539 48.6415C10.6098 48.6179 10.6806 48.5943 10.7278 48.5471C10.8931 48.4055 10.9639 48.1694 10.9167 47.957C10.8695 47.6973 10.7043 47.6973 10.4682 47.6737C10.0197 47.6265 9.7364 47.5084 9.28788 47.3668C9.05181 47.296 8.81575 47.1307 8.6269 46.9655C8.10756 46.5642 8.01313 46.6114 7.51739 45.8324C7.42297 45.6907 7.25774 45.2186 7.23413 45.0534C7.21052 44.8645 7.18687 44.6993 7.18687 44.5576C7.21048 44.4868 7.16331 44.3924 7.16331 44.3452C7.13971 44.2507 7.13966 44.1563 7.18687 44.0619C7.21048 44.0147 7.23411 43.9675 7.2105 43.9202C7.2105 43.8966 7.18687 43.8966 7.18687 43.873C7.18687 43.8494 7.18687 43.8258 7.18687 43.8258C7.18687 43.7786 7.18689 43.755 7.2105 43.7078C7.2105 43.6842 7.23413 43.6606 7.23413 43.637C7.23413 43.5898 7.16327 43.4717 7.11605 43.4481C7.06884 43.4245 6.88 43.4245 6.83279 43.4717C6.80918 43.4953 6.76195 43.5189 6.73834 43.5425C6.71473 43.5898 6.66757 43.637 6.64397 43.6842C6.62036 43.7314 6.59671 43.8022 6.59671 43.8494C6.5495 44.0383 6.69115 44.2744 6.69115 44.4868L6.80916 45.1714Z" fill="#E2CBB7"/>
<path d="M11.4124 46.9891C11.1056 47.1544 10.7042 47.296 10.5862 47.6029C10.4918 47.839 10.5862 48.0986 10.6806 48.3111C11.4833 50.1288 12.6872 51.6868 13.6315 53.4337C13.9147 53.9767 14.1744 54.5196 14.4104 55.0862C14.4813 55.2514 14.5521 55.4403 14.5521 55.6291C14.5521 55.7472 14.5285 55.8416 14.5521 55.9596C14.5993 56.2665 14.977 56.4317 15.3075 56.4081C15.638 56.3609 15.9213 56.1721 16.2045 56.0068C17.078 55.4403 17.9514 54.8501 18.8013 54.2835C19.0137 54.1419 19.2498 53.9767 19.3206 53.717C19.3914 53.4809 19.2498 53.2213 19.1082 53.0088C18.4 51.9701 17.3849 51.2147 16.4878 50.3413C15.5908 49.4914 14.8118 48.5236 13.9383 47.6501C13.537 47.2488 13.0649 46.7531 12.5456 46.4934C12.1207 46.2573 11.8374 46.7767 11.4124 46.9891Z" fill="#D9924E"/>
<path d="M15.1895 46.3991C15.4256 46.4227 15.7325 46.4227 15.8742 46.2338C15.9686 46.0922 15.9449 45.9033 15.9213 45.7381C15.8269 44.9591 15.7325 44.1565 15.6616 43.3774C15.8269 43.3774 16.0157 43.3774 16.1102 43.4955C16.1574 43.5663 16.181 43.6607 16.181 43.7551C16.3226 44.7702 16.4171 45.7853 16.4879 46.8004C16.4879 46.8948 16.4879 47.0128 16.4407 47.0837C16.3935 47.1781 16.2755 47.2253 16.1574 47.2725C15.4964 47.485 14.8119 47.5558 14.1037 47.5794C13.9148 47.5794 13.7259 47.5794 13.5607 47.485C13.4427 47.3905 13.3718 47.2725 13.301 47.1309C13.1357 46.7768 12.9705 46.1394 13.5607 46.1866C14.1273 46.2338 14.6702 46.3282 15.1895 46.3991Z" fill="#E2CBB7"/>
<path d="M15.5436 42.9525C15.5672 42.9053 15.6144 42.8581 15.6616 42.8109C15.756 42.6929 15.7089 42.504 15.7797 42.386C15.8505 42.268 15.9921 42.1971 16.1338 42.2443C16.2518 42.2679 16.3698 42.386 16.4406 42.4804C16.4643 42.5276 16.5115 42.5512 16.5115 42.5984C16.5351 42.6457 16.5115 42.6929 16.5115 42.7637C16.4643 42.9997 16.3698 43.2358 16.2282 43.4483C16.2046 43.4955 16.181 43.5427 16.1338 43.5663C15.9685 43.6843 15.7796 43.5663 15.6852 43.4483C15.638 43.3538 15.4964 43.047 15.5436 42.9525Z" fill="#E2CBB7"/>
<path d="M13.6078 42.6692C13.7731 42.6928 13.9384 42.6456 14.08 42.5984C14.2453 42.5511 14.4105 42.5275 14.5521 42.5747C14.6701 42.622 14.741 42.6928 14.8354 42.7636C14.9771 42.9052 15.1423 43.0705 15.1659 43.2829C15.1659 43.401 15.1423 43.4954 15.1659 43.6134C15.1895 43.7551 15.3076 43.8495 15.4256 43.9203C15.5436 43.9911 15.6616 44.062 15.756 44.1564C15.8269 44.2272 15.8505 44.3216 15.9213 44.3925C16.0629 44.5105 16.2518 44.4869 16.417 44.4161C16.5587 44.3216 16.6767 44.18 16.7711 44.0384C16.8419 43.9439 16.9128 43.8259 16.8656 43.7079C16.8419 43.637 16.7476 43.5662 16.6767 43.5426C16.6059 43.519 16.5115 43.4954 16.4407 43.4482C16.3934 43.4246 16.3698 43.401 16.3698 43.3538C16.3698 43.3066 16.4171 43.2357 16.3935 43.1885C16.3935 43.1177 16.299 43.0941 16.2282 43.0941C16.1574 43.0941 16.0865 43.0941 16.0393 43.0469C15.9449 42.9761 16.0394 42.8108 16.0158 42.7164C15.9921 42.5984 15.8504 42.5511 15.7324 42.5039C15.6144 42.4803 15.4728 42.4095 15.4491 42.2915C15.4255 42.2207 15.4492 42.1262 15.402 42.079C15.3311 42.0082 15.2131 42.079 15.1187 42.0554C14.9535 42.0318 14.9535 41.7957 14.8354 41.7013C14.7174 41.5833 14.5049 41.6069 14.3869 41.4889C14.3633 41.4652 14.3397 41.418 14.2925 41.3944C14.2452 41.3708 14.198 41.3472 14.1272 41.3472C13.9147 41.3236 13.7023 41.2764 13.5135 41.3472C13.3954 41.3944 13.2774 41.4889 13.1829 41.5833C13.0885 41.6777 13.0177 41.7721 12.9941 41.8902C12.9469 42.1734 13.3482 42.622 13.6078 42.6692Z" fill="#C6B697"/>
<path d="M19.3443 42.4094C18.9194 42.9052 18.4472 43.4009 17.8571 43.6606C17.1725 43.9675 16.3698 43.9203 15.7324 44.298C15.6852 44.3216 15.6617 44.3452 15.6381 44.3924C15.6144 44.416 15.6144 44.4632 15.6144 44.5104C15.638 44.8645 15.8033 45.195 16.063 45.4311C16.2046 45.5727 16.3934 45.6671 16.5823 45.6907C16.7239 45.7143 16.8656 45.7143 17.0072 45.7143C17.5029 45.6671 17.9515 45.4547 18.3292 45.1478C18.7069 44.8645 19.0374 44.4868 19.3207 44.0855C19.5331 43.7786 19.7456 43.4717 19.8872 43.1176C20.0524 42.7399 20.1469 42.3386 20.2177 41.9373C20.2177 41.9137 20.2177 41.8901 20.2177 41.8665C20.1469 41.7249 19.7928 41.7721 19.6984 41.8665C19.5567 42.0317 19.4859 42.2678 19.3443 42.4094Z" fill="#D5AFCB"/>
<path d="M14.2924 45.0062C14.198 45.0298 14.08 45.077 13.9855 45.1478C13.8675 45.2423 13.8675 45.3839 13.8675 45.5019C13.8439 46.3046 14.1036 47.0363 14.3632 47.7445C14.7409 48.7596 15.0006 49.7511 15.5672 50.6481C15.7088 50.8606 15.874 51.0967 16.1809 51.0967C16.3462 51.0967 16.5114 51.0258 16.6531 50.9786C17.3141 50.6954 18.0458 50.294 18.636 49.8455C18.8957 49.6567 19.1554 49.4678 19.3914 49.2554C19.6511 48.9957 19.8871 48.6888 19.8871 48.3819C19.8871 48.1222 19.7455 47.9098 19.5802 47.7209C18.9665 46.9891 18.3291 46.3045 17.6209 45.6436C17.1488 45.195 16.6766 44.7701 16.1809 44.3452C15.9685 44.1564 15.6852 43.9675 15.3547 44.2508C15.0243 44.5577 14.7646 44.841 14.2924 45.0062Z" fill="#D5AFCB"/>
<path d="M14.6229 44.652C14.7646 44.5812 14.9298 44.5104 15.0242 44.416C15.3311 44.1327 15.3075 43.6606 15.3075 43.2592C15.2839 42.8815 14.9298 42.3858 14.6701 42.1025C14.5757 42.0081 14.5049 41.9137 14.3869 41.8429C14.1508 41.7484 13.8911 41.8429 13.6786 41.9609C13.3009 42.1734 12.9469 42.433 12.758 42.8107C12.2859 43.7078 13.7023 45.1006 14.6229 44.652Z" fill="#F9E9DE"/>
<path d="M13.537 46.3046C13.2773 47.9571 13.7967 49.6095 14.2924 51.1911C14.2924 51.2147 14.316 51.262 14.3396 51.2856C14.4104 51.3328 14.6466 51.2384 14.7646 51.2148C14.8118 51.1911 14.859 51.1439 14.8354 51.0967C14.7174 50.3177 14.5993 49.4443 14.6702 48.5472C14.7174 47.839 14.6701 47.2253 15.0714 46.5879C15.2367 46.3282 15.2131 46.163 15.0242 45.9033C14.8354 45.6436 14.5049 45.4784 14.198 45.502C13.7495 45.5256 13.6078 45.9505 13.537 46.3046Z" fill="#D5AFCB"/>
<path d="M19.6983 41.5124C19.6511 41.3708 19.6039 41.2527 19.5567 41.1111C19.5567 41.0639 19.5331 41.0403 19.5567 40.9931C19.5567 40.9695 19.5803 40.9459 19.6039 40.9222C19.6747 40.8042 19.5802 40.6154 19.6511 40.4973C19.6983 40.4265 19.7927 40.4029 19.8635 40.4265C19.9815 40.4501 20.1232 40.5209 20.1704 40.6154C20.2648 40.757 20.2648 40.9222 20.2412 41.0639C20.2176 41.2291 20.1941 41.3708 20.2177 41.536C20.2177 41.6068 20.2412 41.654 20.2412 41.7249C20.2412 41.7957 20.2176 41.8665 20.1704 41.8901C20.0996 41.9373 20.0288 41.9373 19.958 41.9137C19.8635 41.8901 19.7455 41.9137 19.7455 41.7957C19.7455 41.7249 19.7455 41.6304 19.6983 41.5124Z" fill="#F9E9DE"/>
<path d="M14.9303 51.5693C14.954 51.5929 14.954 51.6401 14.954 51.6638C14.954 51.711 14.954 51.7346 14.9067 51.7583C14.8831 51.7583 14.8831 51.7819 14.8594 51.7819C14.8358 51.8055 14.8359 51.8292 14.8359 51.8528C14.8595 51.9473 14.9304 52.0418 14.9067 52.1363C14.8831 52.2072 14.8122 52.2544 14.7413 52.2781C14.6705 52.3017 14.5995 52.2781 14.5523 52.2308C14.505 52.1836 14.4815 52.1127 14.4578 52.0418C14.4106 51.8292 14.4578 51.5693 14.3633 51.3802C14.3397 51.3566 14.3397 51.3094 14.3397 51.2857C14.3397 51.2385 14.4106 51.1912 14.4578 51.1912C14.5287 51.1676 14.6941 51.0967 14.765 51.1676C14.8122 51.2148 14.8122 51.2857 14.8359 51.333C14.8831 51.4275 14.9067 51.4984 14.9303 51.5693Z" fill="#F9E9DE"/>
<path d="M15.7796 45.0299C15.9213 45.384 16.0629 45.7381 16.2282 46.1158C16.2518 46.163 16.2753 46.2338 16.2517 46.281C16.2045 46.3518 16.1102 46.3282 16.0157 46.3046C15.5908 46.1158 15.3075 45.7381 14.9298 45.4548C14.7645 45.3368 14.5993 45.2659 14.4577 45.1243C14.4341 45.1007 14.4104 45.0771 14.4104 45.0299C14.3868 44.9591 14.4813 44.8882 14.5285 44.8646C14.6229 44.7938 14.741 44.7466 14.8354 44.6758C14.9062 44.6286 15.0006 44.5577 15.0479 44.5105C15.1187 44.4161 15.1895 44.2745 15.2839 44.2273C15.3784 44.18 15.4019 44.2509 15.4728 44.3217C15.6144 44.5341 15.7088 44.7938 15.7796 45.0299Z" fill="#F7F7F7"/>
<path d="M15.6853 44.2981C15.7089 44.3453 15.6853 44.3925 15.6853 44.4161C15.7089 44.4634 15.7561 44.4633 15.8033 44.4633C15.8506 44.4397 15.8978 44.4161 15.945 44.4161C15.9922 44.4161 16.0394 44.4633 16.0394 44.5106C16.0394 44.5342 16.0158 44.5342 15.9922 44.5578C15.945 44.605 15.9213 44.723 15.9922 44.7702C16.0394 44.7938 16.0866 44.7938 16.1338 44.8174C16.181 44.8411 16.2282 44.8883 16.2046 44.9355C16.2046 44.9591 16.181 44.9591 16.1574 44.9591C16.1102 44.9827 16.0866 45.0771 16.1338 45.1243C16.1574 45.1715 16.2282 45.1715 16.2754 45.1951C16.3226 45.2187 16.3699 45.2424 16.3699 45.2896C16.3699 45.3368 16.3226 45.384 16.3226 45.4312C16.3226 45.5492 16.5351 45.5492 16.5351 45.6437C16.5351 45.6909 16.4643 45.7381 16.4643 45.7853C16.4643 45.8561 16.5351 45.8797 16.606 45.8797C16.6768 45.8797 16.7476 45.9269 16.7476 45.9742C16.7476 46.0214 16.7004 46.045 16.6531 46.0686C16.6059 46.0922 16.5587 46.1394 16.5823 46.1866C16.6059 46.2338 16.6532 46.2338 16.6768 46.2574C16.724 46.3283 16.6295 46.4227 16.6295 46.5171C16.6295 46.6351 16.8184 46.6351 16.8656 46.7296C16.9128 46.8004 16.8656 46.9184 16.9128 46.9892C16.9364 47.0601 17.0309 47.0837 17.0545 47.1545C17.0545 47.1781 17.0544 47.2017 17.078 47.2017C17.1017 47.2489 17.1253 47.2725 17.1725 47.2961C17.2197 47.3197 17.2669 47.3906 17.2905 47.4378C17.2905 47.5086 17.2433 47.5794 17.1961 47.5794C17.1489 47.5794 17.1017 47.5322 17.078 47.485C17.0544 47.4378 17.0544 47.3906 17.0072 47.3433C16.9364 47.2489 16.7948 47.2253 16.724 47.1309C16.7004 47.0837 16.7004 47.0129 16.6531 46.942C16.6059 46.8476 16.4643 46.824 16.4407 46.7296C16.4171 46.6824 16.4407 46.6115 16.4171 46.5407C16.3935 46.4463 16.2755 46.3755 16.2282 46.3046C16.2046 46.2574 16.181 46.2102 16.1574 46.163C16.1102 45.9978 16.0394 45.8325 15.9922 45.6673C15.9686 45.6201 15.9686 45.5965 15.945 45.5492C15.9214 45.5256 15.8978 45.4784 15.8742 45.4548C15.7797 45.3368 15.7561 45.1951 15.7089 45.0535C15.6617 44.8647 15.5672 44.6994 15.4728 44.5342C15.4256 44.4633 15.3312 44.3217 15.402 44.2273C15.4492 44.2037 15.6617 44.2037 15.6853 44.2981Z" fill="white"/>
<path d="M14.2453 45.2187C14.2453 45.3367 14.3633 45.4075 14.4577 45.4547C14.4813 45.4547 14.5049 45.4784 14.5285 45.4784C14.5994 45.5492 14.5285 45.6908 14.5757 45.7616C14.6466 45.8325 14.8118 45.738 14.8826 45.7852C14.9298 45.8324 14.9298 45.9033 14.9298 45.9505C14.9298 46.0213 14.9534 46.0921 15.0006 46.1157C15.0951 46.1393 15.1895 45.9741 15.284 46.0449C15.3312 46.0685 15.3312 46.1393 15.3548 46.2101C15.3784 46.281 15.4256 46.3518 15.4728 46.3518C15.5436 46.3518 15.6144 46.281 15.6852 46.281C15.7325 46.281 15.7797 46.3518 15.8033 46.3754C15.8269 46.4226 15.8741 46.4698 15.9213 46.4462C15.9449 46.4462 15.9449 46.4462 15.9685 46.4462C15.9921 46.4462 15.9922 46.4698 16.0158 46.4698C16.063 46.517 16.0866 46.5879 16.1338 46.6351C16.181 46.5879 16.2518 46.5879 16.2754 46.6351C16.299 46.6587 16.299 46.6823 16.3226 46.7059C16.3462 46.7295 16.3934 46.7059 16.417 46.6823C16.4406 46.6587 16.4407 46.6115 16.4407 46.5879C16.4407 46.4934 16.417 46.3754 16.3226 46.3046C16.2518 46.2574 16.181 46.2338 16.1101 46.2101C15.9685 46.1629 15.8505 46.0685 15.7561 45.9741C15.4728 45.738 15.1659 45.5256 14.859 45.3131C14.7174 45.2187 14.5757 45.1006 14.4341 45.0298C14.3633 45.0062 14.2217 45.1006 14.2453 45.2187Z" fill="white"/>
<path d="M13.1358 43.3066C13.065 43.4718 13.0413 43.6607 13.0885 43.8259C13.1593 44.0384 13.3718 44.2036 13.5843 44.298C13.7968 44.3925 14.0328 44.4633 14.2217 44.6049C14.3161 44.6757 14.3869 44.7466 14.4577 44.8174C14.5758 44.959 14.6938 45.1006 14.7174 45.2659C14.7646 45.4311 14.7174 45.6436 14.5994 45.7616C14.4577 45.8797 14.2452 45.8797 14.1272 45.738C14.0564 45.6672 14.0328 45.5492 13.9384 45.5256C13.8204 45.4783 13.6787 45.62 13.5843 45.5492C13.4899 45.4783 13.5843 45.3131 13.537 45.1951C13.4662 45.0298 13.2065 45.1243 13.0885 45.0062C12.9941 44.8882 13.0414 44.6993 12.9233 44.6049C12.8761 44.5577 12.7816 44.5577 12.7108 44.5577C12.64 44.5341 12.5692 44.5105 12.5692 44.4397C12.5692 44.4161 12.5692 44.3925 12.5692 44.3688C12.5692 44.298 12.522 44.2508 12.4748 44.18C12.2623 43.9203 12.1679 43.5898 12.1679 43.2593C12.1679 43.1413 12.1915 42.9997 12.2151 42.8816C12.2387 42.74 12.2859 42.5984 12.3332 42.4803C12.4512 42.2443 12.6164 42.0554 12.8525 41.9374C12.9469 41.8902 13.0413 41.843 13.1358 41.843C13.4191 41.8193 13.7259 42.1262 13.7259 42.4095C13.7023 42.7636 13.301 42.9289 13.1358 43.3066Z" fill="#C6B697"/>
<path d="M9.38239 45.4784C9.33518 45.3368 9.28792 45.1716 9.26431 45.0063C9.19349 44.4634 9.45315 43.5191 10.1377 43.5191C10.303 43.5191 10.4447 43.5663 10.6099 43.6135C10.7751 43.6607 10.9168 43.7316 11.0584 43.826C11.3181 43.9912 11.5541 44.2273 11.6958 44.5106C11.8138 44.7702 11.8374 45.1007 11.861 45.384C11.8846 45.7617 11.8847 46.1866 11.6486 46.4699C11.3417 46.8712 10.7043 46.9184 10.2558 46.6588C9.80729 46.4463 9.52403 45.9742 9.38239 45.4784Z" fill="#E2CBB7"/>
<path d="M10.2793 44.062C10.4918 44.1801 10.7279 44.2273 10.9639 44.2745C11.1528 44.2981 11.3416 44.3453 11.4833 44.4633C11.6013 44.5578 11.6485 44.723 11.7665 44.8174C11.861 44.7702 11.8846 44.6522 11.8846 44.5341C11.8846 44.3689 11.8846 44.2037 11.8138 44.0384C11.7666 43.9204 11.6957 43.826 11.6249 43.7315C11.4833 43.5427 11.3417 43.3538 11.1292 43.2358C10.9167 43.1178 10.657 43.0705 10.421 43.1178C10.2321 43.165 9.90162 43.3302 9.8308 43.5427C9.75998 43.7551 10.0905 43.9676 10.2793 44.062Z" fill="#534741"/>
<path d="M8.76854 48.5471C8.76854 48.3583 8.81573 48.1694 8.81573 48.0042C8.86294 47.4848 8.72128 46.9891 8.65046 46.4934C8.62686 46.2809 8.62693 46.0448 8.72135 45.856C8.79217 45.738 8.95735 45.6199 9.09899 45.6199C9.07539 45.5727 9.05178 45.5491 9.02818 45.5019C8.79211 45.1242 8.62688 44.6521 8.74491 44.2035C8.83934 43.755 9.24063 43.3773 9.68915 43.3773C9.99604 43.3773 10.3502 43.6842 10.1141 43.9911C10.0433 44.0855 9.90166 44.1563 9.80723 44.2507C9.66559 44.3924 9.57115 44.5813 9.50033 44.7465C9.3823 45.0534 9.42949 45.4075 9.61834 45.6671C9.57112 45.6435 9.52392 45.6199 9.4767 45.5727C9.42949 45.6671 9.54754 45.7852 9.64197 45.856C9.80721 46.0212 9.90167 46.2337 9.97249 46.4698C9.76003 46.2809 9.54755 46.0921 9.3587 45.9032C9.3587 46.0685 9.31149 46.2809 9.28788 46.3989C9.24067 47.0599 9.52397 47.6737 9.90168 48.2166C10.0197 48.3819 10.1377 48.5235 10.1613 48.736C10.2085 48.9956 10.0433 49.2553 9.80723 49.3498C9.57116 49.4442 9.28789 49.397 9.07544 49.2317C8.88658 49.0665 8.79215 48.8068 8.76854 48.5471Z" fill="#534741"/>
<path d="M6.26624 50.3413C6.05378 50.3177 5.81772 50.2233 5.60526 50.058C5.20395 49.7276 4.82622 49.3499 4.61376 48.8777C4.3777 48.3348 4.37771 47.5085 4.92066 47.1308C5.53443 46.6823 6.24262 47.3669 6.69114 47.839C7.04524 48.2167 7.30488 48.6889 7.32849 49.2082C7.30488 49.9636 6.8328 50.3885 6.26624 50.3413Z" fill="#B79A7D"/>
<path d="M5.60531 47.3905C5.60531 47.4613 5.55805 47.5557 5.48723 47.5793C5.41641 47.6029 5.32199 47.5557 5.27478 47.4849C5.29839 47.6974 5.06236 47.8862 4.87351 47.8154C4.92072 47.7682 4.94431 47.8862 4.9207 47.9334C4.84988 48.0278 4.73184 48.1223 4.6138 48.1223C4.70823 48.1223 4.73188 48.2639 4.73188 48.3583C4.73188 48.4292 4.70825 48.5 4.70825 48.5708C4.84989 48.6416 4.82626 48.9013 4.68462 48.9249C4.80265 48.9013 4.92068 49.0193 4.89707 49.1374C4.9915 49.161 5.08598 49.2318 5.18041 49.3026C5.13319 49.3498 5.15678 49.4442 5.22759 49.4442C5.20399 49.4914 5.15678 49.5386 5.08596 49.5623C5.10957 49.5386 5.13313 49.6095 5.10952 49.6331C5.08591 49.6567 5.03875 49.6331 5.01515 49.6331C4.92072 49.5859 4.84986 49.4914 4.82625 49.397C4.70822 49.4206 4.61381 49.3026 4.54299 49.2082C4.49577 49.161 4.4722 49.1137 4.42498 49.0665C4.37777 49.0193 4.35414 48.9721 4.33054 48.9249C4.33054 48.8777 4.35414 48.8069 4.40135 48.7833C4.28332 48.8305 4.11811 48.7124 4.14172 48.5944C3.95287 48.6416 3.76398 48.3819 3.88201 48.2167C3.76398 48.1459 3.71677 48.0042 3.74038 47.8862C3.76398 47.7682 3.882 47.6501 4.02364 47.6501C4.02364 47.6737 3.97643 47.6974 3.95283 47.6737C3.92922 47.6501 3.9292 47.6265 3.9292 47.5793C3.9528 47.3669 4.11808 47.178 4.33054 47.1544C4.33054 46.9656 4.51937 46.8003 4.68462 46.8003C4.66101 46.8239 4.61385 46.8475 4.59025 46.8239C4.61385 46.7059 4.68464 46.5643 4.77907 46.517C4.8971 46.4462 5.06236 46.4934 5.08596 46.6114C5.20399 46.4226 5.53444 46.4462 5.62886 46.6587C5.72329 46.5879 5.86494 46.5406 6.00658 46.5642C6.12461 46.5878 6.24268 46.7295 6.19547 46.8711C6.3135 46.8003 6.50231 46.8003 6.59674 46.9183C6.69116 47.0364 6.71479 47.2016 6.62037 47.3196C6.76201 47.3196 6.92728 47.3905 7.02171 47.5085C7.02171 47.5793 6.9981 47.6501 6.95089 47.6974C6.9981 47.6974 7.02166 47.721 7.04527 47.7682C6.99805 47.8626 6.97443 47.957 6.88 48.0042C6.78558 48.0515 6.64395 47.9806 6.66755 47.8862C6.50231 47.9098 6.33705 47.7918 6.28984 47.6265C6.24263 47.6501 6.21905 47.6501 6.17184 47.6501C6.10102 47.6029 6.00662 47.5085 6.05383 47.4377C6.03023 47.5321 5.91218 47.6029 5.81776 47.5793C5.67612 47.6029 5.60531 47.5085 5.60531 47.3905Z" fill="#333333"/>
<path d="M3.00854 47.414C2.93772 47.5085 3.05575 47.6265 3.15017 47.6265C3.2446 47.6265 3.33904 47.5321 3.38625 47.4377C3.33904 47.4849 3.36267 47.5557 3.40988 47.5793C3.55152 47.5321 3.66951 47.414 3.74033 47.2724C3.69312 47.2724 3.69312 47.3432 3.74033 47.3668C3.76394 47.3904 3.81112 47.3904 3.85834 47.3668C3.97637 47.3196 4.04723 47.2016 4.04723 47.0836C3.9528 47.1072 3.97643 47.2724 4.07086 47.296C4.16528 47.3196 4.25965 47.2488 4.30687 47.178C4.33047 47.1544 4.3305 47.1308 4.3305 47.1072C4.28328 47.1308 4.30691 47.2252 4.35412 47.2488C4.40134 47.2724 4.47215 47.2488 4.49576 47.2016C4.51936 47.1544 4.54294 47.1072 4.54294 47.0363C4.54294 47.0599 4.5666 47.1072 4.5902 47.1072C4.68463 47.06 4.70823 46.9419 4.66102 46.8475C4.66102 46.8239 4.63737 46.8239 4.61376 46.8239C4.68458 46.7295 4.70818 46.5878 4.68458 46.4698C4.779 46.4698 4.87347 46.3754 4.87347 46.2809C4.94429 46.2573 4.9915 46.2101 5.0151 46.1393C5.06232 46.1629 5.10952 46.1393 5.15674 46.1157C5.18034 46.0685 5.20392 46.0213 5.20392 45.974C5.20392 45.9504 5.20397 45.9268 5.18036 45.9032C5.15676 45.9032 5.13311 45.9268 5.13311 45.9268C5.22753 45.856 5.27474 45.7144 5.20392 45.5964C5.18032 45.62 5.15674 45.6436 5.15674 45.6908C5.22755 45.6436 5.22755 45.5255 5.15674 45.4783C5.08592 45.4311 4.96789 45.4547 4.94429 45.5255C4.96789 45.4547 4.94429 45.3839 4.87347 45.3131C4.84986 45.3131 4.80263 45.3367 4.77902 45.3367C4.82624 45.2659 4.75545 45.1242 4.66102 45.1478C4.56659 45.1478 4.49573 45.2658 4.54294 45.3603C4.59016 45.2895 4.51937 45.1714 4.42494 45.1714C4.33052 45.1714 4.28328 45.2895 4.3305 45.3603C4.28328 45.3131 4.21245 45.2895 4.16523 45.3367C4.11802 45.3603 4.09446 45.4547 4.14168 45.5019C4.09446 45.4547 4.0236 45.4075 3.95278 45.4311C3.88196 45.4547 3.88196 45.5727 3.95278 45.5964C3.92918 45.5019 3.78757 45.4783 3.69315 45.5491C3.62233 45.62 3.59868 45.7144 3.57507 45.8088C3.52786 45.7616 3.45709 45.7616 3.40988 45.7852C3.36267 45.8088 3.33904 45.9032 3.38625 45.9504C3.40986 45.8796 3.33899 45.8324 3.26818 45.8324C3.19736 45.8324 3.17375 45.9268 3.19736 45.974C3.12654 45.9268 3.03212 45.9504 2.98491 45.9977C2.9377 46.0449 2.91414 46.1393 2.96135 46.2101C2.93775 46.1629 2.86693 46.1629 2.81972 46.1865C2.77251 46.2101 2.72525 46.2573 2.70164 46.2809C2.65443 46.3281 2.6072 46.3754 2.6072 46.4462C2.6072 46.517 2.67806 46.5642 2.72527 46.5406C2.65445 46.5878 2.58362 46.635 2.56001 46.7058C2.56001 46.7767 2.67804 46.8711 2.70164 46.8003C2.60722 46.8475 2.5364 46.9419 2.56001 47.0363C2.58362 47.1308 2.70164 47.2016 2.77246 47.1308C2.70164 47.178 2.70162 47.296 2.74883 47.3432C2.84326 47.4613 2.93772 47.4849 3.00854 47.414Z" fill="#333333"/>
<path d="M6.10103 51.0967C6.05382 51.1203 5.98301 51.1439 5.9594 51.1911C5.86497 51.2855 5.88856 51.4271 5.93577 51.5216C6.0538 51.9229 6.14826 52.3006 6.26629 52.7019C6.36072 53.0088 6.45511 53.3157 6.52593 53.6225C6.7856 54.5668 7.06891 55.5111 7.44662 56.4317C7.56465 56.7386 7.70625 57.0219 7.84789 57.3052C7.87149 57.3288 7.87149 57.376 7.9187 57.376C7.96592 57.3996 8.01312 57.376 8.06034 57.376C9.42951 57.0219 10.8223 56.3845 11.7194 55.2986C11.3417 54.732 10.9404 54.1655 10.5627 53.599C10.2322 53.1032 9.9017 52.6075 9.524 52.1353C9.05187 51.5452 8.53252 51.0022 7.96596 50.4829C7.87154 50.4121 7.6827 50.1288 7.54106 50.1524C7.39943 50.1524 7.28134 50.3649 7.18691 50.4593C6.85642 50.7662 6.45513 50.9314 6.10103 51.0967Z" fill="#AA4A4D"/>
<path d="M5.81772 51.6397C5.95936 52.7964 6.12461 53.9531 6.26625 55.1098C6.28985 55.2279 6.28987 55.3459 6.36069 55.4403C6.45512 55.5347 6.57314 55.582 6.71478 55.6292C7.47018 55.8652 8.24917 56.0777 9.05179 55.9833C9.16982 55.9597 9.31145 55.9361 9.40587 55.8652C9.5003 55.7944 9.57114 55.6292 9.50032 55.5111C9.4295 55.3459 9.21701 55.3459 9.02816 55.3459C8.53243 55.3459 8.03673 55.2515 7.5882 55.0862C7.39935 55.0154 7.23408 54.9446 7.11604 54.7793C6.99801 54.6141 6.95083 54.4016 6.92722 54.1892C6.85641 53.481 6.8328 52.7728 6.78559 52.0882C6.76199 51.8285 6.71476 51.6397 6.4787 51.5216C6.26624 51.38 5.77051 51.2856 5.81772 51.6397Z" fill="#B79A7D"/>
<path d="M4.9207 48.2403C4.99152 48.2639 5.03875 48.3111 5.08596 48.3819C5.10956 48.4291 5.10954 48.5236 5.06233 48.5708C5.20397 48.5708 5.32204 48.736 5.25122 48.8541C5.36925 48.8777 5.41644 49.0193 5.36922 49.1137C5.46365 49.1374 5.51086 49.279 5.44004 49.3498C5.51086 49.3498 5.5817 49.4206 5.6053 49.4914C5.6053 49.5623 5.5581 49.6567 5.46367 49.6567C5.51088 49.6803 5.5817 49.6803 5.6053 49.7511C5.62891 49.7983 5.62886 49.8928 5.55804 49.8928C5.67608 49.9164 5.74689 50.0344 5.69968 50.1288C5.65246 50.2232 5.51084 50.2468 5.41641 50.176C5.41641 50.2468 5.3456 50.2941 5.27478 50.2941C5.20396 50.2941 5.13317 50.2469 5.08596 50.1996C5.01514 50.2469 4.94433 50.2705 4.87351 50.2705C4.80269 50.2705 4.70827 50.1996 4.73188 50.1288C4.68466 50.176 4.5902 50.176 4.54298 50.1288C4.47216 50.1052 4.44854 50.0108 4.44854 49.9636C4.35411 49.9872 4.25972 49.9636 4.1889 49.8928C4.11808 49.8219 4.14166 49.7039 4.23609 49.6567C4.09445 49.6803 3.95285 49.5859 3.90564 49.4442C3.90564 49.397 3.90561 49.3498 3.95282 49.3734C3.8584 49.3734 3.76396 49.3262 3.71674 49.2318C3.66953 49.1609 3.69318 49.0429 3.764 48.9721C3.66958 48.9721 3.59874 48.9013 3.59874 48.8305C3.59874 48.736 3.64595 48.6652 3.74037 48.6416C3.69316 48.5944 3.66958 48.5472 3.62237 48.5C3.59876 48.4764 3.59874 48.4528 3.59874 48.4528C3.59874 48.4292 3.62237 48.4292 3.62237 48.4055C3.66958 48.3819 3.74035 48.3347 3.78756 48.3347C3.74035 48.2875 3.7404 48.2167 3.764 48.1695C3.78761 48.1223 3.88198 48.0987 3.92919 48.1223C4.00001 47.8862 4.3305 47.7918 4.51935 47.9098C4.59017 47.7446 4.75545 47.8626 4.84988 47.9334C4.89709 47.9806 4.94433 48.0515 4.94433 48.0987C4.99154 48.0987 4.96791 48.2639 4.9207 48.2403Z" fill="#333333"/>
<defs>
<linearGradient id="paint0_linear_8_340" x1="36.5198" y1="229.257" x2="226.814" y2="229.257" gradientUnits="userSpaceOnUse">
<stop stop-color="#4D4D4D"/>
<stop offset="1"/>
</linearGradient>
<linearGradient id="paint1_linear_8_340" x1="36.5198" y1="229.257" x2="226.814" y2="229.257" gradientUnits="userSpaceOnUse">
<stop/>
<stop offset="1"/>
</linearGradient>
</defs>
</svg>
