<svg width="402" height="481" viewBox="0 0 402 481" fill="none" xmlns="http://www.w3.org/2000/svg">
<path d="M35.6747 478.064C45.2516 478.37 54.8284 478.282 64.4053 478.151C91.1242 477.801 117.843 477.495 144.562 477.145C148.716 477.102 154.095 476.314 154.358 473.472C154.62 470.936 150.378 469.318 146.792 468.53C133.979 465.775 120.511 465.207 107.217 464.682C87.6694 463.939 68.0786 463.327 48.5313 462.802C36.3307 462.496 23.7802 462.233 12.4104 465.032C6.20077 466.563 -2.895 473.035 6.98795 476.227C9.74293 477.101 15.2529 476.752 18.2266 476.97C24.0426 477.451 29.8149 477.845 35.6747 478.064Z" fill="url(#paint0_linear_8_238)"/>
<path opacity="0.22" d="M35.6747 478.064C45.2516 478.37 54.8284 478.282 64.4053 478.151C91.1242 477.801 117.843 477.495 144.562 477.145C148.716 477.102 154.095 476.314 154.358 473.472C154.62 470.936 150.378 469.318 146.792 468.53C133.979 465.775 120.511 465.207 107.217 464.682C87.6694 463.939 68.0786 463.327 48.5313 462.802C36.3307 462.496 23.7802 462.233 12.4104 465.032C6.20077 466.563 -2.895 473.035 6.98795 476.227C9.74293 477.101 15.2529 476.752 18.2266 476.97C24.0426 477.451 29.8149 477.845 35.6747 478.064Z" fill="url(#paint1_linear_8_238)"/>
<path d="M89.4624 134.74C84.0399 123.852 79.6669 112.526 75.294 101.2C73.6759 96.9578 72.539 91.4916 75.8625 88.3868C77.874 86.5064 81.0224 86.2003 83.6462 87.0749C86.27 87.9495 88.4567 89.7862 90.3808 91.754C93.2232 94.6839 95.5847 98.0074 97.8149 101.375C107.917 116.724 109.534 137.014 110.846 155.337C111.808 169.025 109.622 183.543 115.482 195.962C113.295 196.793 111.065 197.624 108.878 198.455C108.354 198.63 107.785 198.848 107.26 198.586C106.736 198.324 106.561 197.711 106.386 197.143C103.718 186.998 101.794 176.765 98.3397 166.707C94.7976 156.43 94.2289 144.58 89.4624 134.74Z" fill="#EDEDED"/>
<path d="M134.154 208.294C135.204 208.469 136.297 208.688 137.259 208.25C138.527 207.726 139.139 206.326 139.664 205.014C146.399 187.479 148.323 168.5 149.503 149.74C145.524 148.166 141.151 147.816 136.909 147.51C125.321 146.635 113.689 145.76 102.1 144.886C95.2786 144.361 88.3693 143.88 81.6349 145.148C80.8477 164.214 80.0169 183.237 79.2298 202.303C79.1423 203.484 129.65 207.463 134.154 208.294Z" fill="#E2E2E2"/>
<path d="M114.519 176.546C114.607 176.546 114.738 176.502 114.826 176.415C114.651 176.415 114.563 176.459 114.519 176.546Z" fill="white"/>
<path d="M108.485 181.007C111.677 181.663 114.913 182.231 118.149 182.712C118.63 182.8 118.98 182.493 119.155 182.187C119.505 182.012 119.767 181.663 119.636 181.182C118.28 176.371 116.925 171.561 115.569 166.751C115.307 165.832 114.082 165.92 113.82 166.751C112.333 171.299 110.365 175.584 107.96 179.738C107.654 180.132 107.872 180.875 108.485 181.007ZM114.563 169.943C115.569 173.573 116.618 177.158 117.624 180.788C115.088 180.394 112.595 179.957 110.103 179.476C111.852 176.371 113.339 173.223 114.563 169.943Z" fill="white"/>
<path d="M86.445 72.0319C83.6463 75.5302 79.4482 77.6293 75.425 79.5534C72.1016 81.1714 68.6033 82.7894 64.93 82.4396C58.5892 81.8274 54.4787 75.6177 51.3301 70.064C46.6073 61.7116 41.7532 52.9219 41.6657 43.3451C41.5345 34.6428 45.6452 25.9844 52.4233 20.5619C59.2015 15.1394 68.5596 13.0841 76.9995 15.0956C87.1448 17.5445 98.9519 24.6724 96.4156 36.4358C95.2786 41.7708 93.3106 46.7997 92.3922 52.2222C91.299 58.8692 90.7743 66.5656 86.445 72.0319Z" fill="#EDDCD1"/>
<path d="M98.9517 25.7657C101.794 32.0628 102.625 39.1033 103.019 46.0126C103.062 46.6248 103.063 47.3245 102.713 47.8055C102.1 48.6364 100.832 48.5489 99.8264 48.374C89.1126 46.4499 78.4426 44.5258 67.7288 42.6454C64.0992 41.9894 59.7263 41.5959 57.3649 44.3946C56.053 45.9252 55.7468 48.0679 55.6156 50.0795C55.2657 54.8461 55.6155 59.6126 56.6213 64.2917C53.7788 60.6621 52.6418 56.0268 52.2483 51.4351C52.0296 48.8113 51.3737 45.3567 48.7499 45.0068C46.1699 44.7007 44.5957 48.1554 45.2954 50.648C45.9951 53.1843 47.9192 55.1521 48.8813 57.5573C49.6247 59.4377 49.7994 61.493 50.018 63.5046C50.6302 69.1894 51.7236 74.8743 54.2162 79.9907C56.7088 85.1071 60.6881 89.6988 65.892 92.0164C61.6064 90.311 57.3647 88.5617 53.0792 86.8563C48.575 85.0634 44.1145 83.2267 39.6541 81.39C36.4618 80.0782 33.226 78.6351 30.8208 76.1862C29.1591 74.5244 27.9347 72.4692 27.0163 70.2827C22.2935 59.5251 23.9552 47.0621 27.2787 35.8235C29.9025 27.0338 33.8381 18.0693 41.4034 12.8217C50.1931 6.74322 61.7813 7.09307 72.4077 8.05513C83.2964 9.14838 94.3164 15.4892 98.9517 25.7657Z" fill="#EDDDB2"/>
<path d="M29.771 350.897C31.1703 319.062 28.1094 286.571 28.2843 254.56C27.3222 243.453 28.8528 232.127 32.701 221.675C32.9197 221.019 33.1819 220.363 33.663 219.882C35.1498 218.352 37.6861 219.139 39.6977 219.97C58.6765 227.798 81.1098 225.917 98.3831 214.81C101.794 220.014 102.8 226.442 103.675 232.608C105.074 242.622 106.561 252.592 106.954 262.65V262.694C107.042 264.837 107.086 267.023 107.042 269.166C106.823 281.716 104.418 294.048 102.581 306.424C101.357 314.47 100.307 322.604 100.22 330.781C100.132 337.472 101.094 343.55 99.6077 350.11C95.9781 366.246 95.9781 383.782 94.4476 400.224C92.8296 417.848 92.5235 417.279 91.2116 434.946C91.1679 435.646 91.124 436.345 91.0365 437.045C90.1619 437.264 76.6057 440.412 76.6057 436.914C75.4687 402.673 72.9763 386.581 71.8393 352.34C71.3583 337.909 72.3202 289.194 68.6469 275.463C67.16 275.594 65.6296 275.769 64.1428 275.944C55.9653 321.292 47.6566 382.514 39.4791 427.862C38.7794 431.841 37.9047 436.17 35.281 438.75C32.6572 441.331 27.7596 440.631 26.9724 436.651C29.3776 402.017 28.2841 385.575 29.771 350.897Z" fill="#736357"/>
<path d="M66.3731 115.499C66.4168 115.499 66.5042 115.543 66.5479 115.543C66.4604 115.543 66.4168 115.499 66.3731 115.499Z" fill="white"/>
<path d="M66.0232 115.412C66.0665 115.412 66.0666 115.455 66.11 115.455C66.0666 115.412 66.0232 115.412 66.0232 115.412Z" fill="white"/>
<path d="M66.1542 115.456C66.1105 115.456 66.1107 115.412 66.1107 115.412C66.1982 115.456 66.2856 115.456 66.3731 115.499C66.2856 115.499 66.2417 115.499 66.1542 115.456Z" fill="#1D4360"/>
<path d="M25.3543 218.09C32.701 204.927 36.4616 189.534 34.4937 174.535C33.0069 163.252 28.4152 151.795 31.4326 140.819C33.0069 135.134 36.5054 130.193 39.5665 125.164C46.5633 113.619 51.3736 100.762 53.735 87.4685C53.8662 86.7688 53.9973 86.0691 54.4783 85.5881C55.4841 84.5823 57.1895 85.1508 58.5014 85.6318C63.1805 87.4247 68.428 87.6434 73.2383 86.3752C75.9933 85.6318 76.6494 84.5823 78.3549 86.9C79.798 88.8679 80.4977 92.1913 81.3723 94.4653C85.308 104.698 88.7626 115.237 89.5935 126.213C90.0308 131.723 89.8121 137.32 91.4301 142.612C92.742 146.941 95.2344 150.746 97.2897 154.812C104.636 169.549 105.555 186.604 111.021 202.172C111.896 204.708 112.945 207.201 113.207 209.868C113.47 212.536 112.901 215.422 110.977 217.302C109.622 218.658 107.741 219.314 105.948 219.926C103.325 220.845 100.657 221.807 98.0333 222.725C94.36 224.037 90.6868 225.305 86.8823 226.048C82.2469 226.967 77.4801 227.01 72.7136 227.054C63.9676 227.142 55.2654 227.273 46.5194 227.36C41.5342 227.404 36.5929 227.491 31.6077 227.098C28.2842 226.836 24.1298 225.524 23.8674 222.2C23.8237 220.801 24.6109 219.401 25.3543 218.09Z" fill="#F2F2F2"/>
<path d="M80.3663 435.733C79.3605 435.689 78.3111 435.558 77.4365 436.083C76.4744 436.651 75.9933 437.788 75.731 438.882C74.0255 445.66 76.6493 452.657 77.3927 459.61C77.83 463.72 77.6114 467.918 78.2674 472.029C79.6667 471.898 81.0662 471.766 82.4655 471.635C82.1594 469.186 82.1156 466.738 82.378 464.289C82.4654 463.502 82.5967 462.714 83.034 462.058C83.4713 461.402 84.3458 461.009 85.0892 461.271C85.7452 461.534 86.0514 462.233 86.3138 462.889C86.8823 464.42 87.3631 465.994 87.7129 467.568C87.8878 468.443 88.0629 469.405 88.6751 470.061C89.5934 471.11 91.2113 471.198 92.6544 471.154C97.8582 471.067 103.062 470.979 108.222 470.892C110.452 470.848 112.945 470.673 114.344 468.968C116.05 466.869 115.001 463.545 113.076 461.709C111.109 459.828 108.485 458.866 106.211 457.423C103.718 455.849 101.619 453.662 100.132 451.082C97.596 446.709 97.5085 440.106 94.1413 436.302C92.742 434.727 91.1677 434.99 89.2436 435.296C86.3137 435.689 83.3837 435.908 80.3663 435.733Z" fill="#3D322B"/>
<path d="M26.1854 430.398C25.7044 430.354 25.2234 430.398 24.8298 430.66C24.5674 430.835 24.3925 431.141 24.2613 431.447C22.3809 435.296 22.4682 439.756 21.6811 443.954C20.5879 449.902 17.8328 455.368 15.5588 460.965C14.9029 462.583 14.2908 464.289 14.3345 466.038C14.422 469.449 17.177 472.379 20.3693 473.603C23.5615 474.828 27.1474 474.609 30.5146 473.997C31.2143 473.865 31.9138 473.734 32.526 473.428C33.182 473.122 33.7067 472.597 34.1878 472.073C38.2984 467.612 38.5172 460.965 38.7358 454.887C38.867 451.388 39.0855 447.934 39.3479 444.479C39.5665 441.549 40.66 437.832 40.1352 434.946C39.6979 432.497 37.8612 432.322 35.7185 432.06C32.5262 431.535 29.4214 430.573 26.1854 430.398Z" fill="#3D322B"/>
<path d="M50.018 199.504C50.5865 221.194 52.467 243.234 63.8368 263.7C59.7262 259.895 50.4116 260.245 43.8084 262.257C37.2052 264.268 31.3454 267.504 24.13 268.335C17.9204 269.035 11.2296 267.723 6.81288 264.88C-1.71444 259.458 -0.533738 250.668 1.34665 243.103C10.7048 205.146 21.3314 167.232 27.0163 129.012C28.1533 121.49 29.2028 113.706 34.9314 107.059C38.2986 103.168 43.2399 99.7128 44.5955 95.3398C45.2952 93.1096 44.9893 90.7919 46.1262 88.6492C47.2632 86.5064 56.665 84.145 60.1633 84.7135C65.717 90.9231 56.1839 98.4009 55.2219 105.398C54.1723 112.963 53.2978 120.484 52.5544 128.05C51.0239 143.443 50.1493 158.879 49.8432 174.316C49.7994 182.712 49.7993 191.108 50.018 199.504Z" fill="#728342"/>
<path d="M85.4829 222.288C84.0836 234.663 81.8096 247.389 87.0571 259.371C87.6256 260.639 88.2814 261.951 89.6371 262.956C93.1354 265.536 99.4765 265.274 104.899 265.143C117.581 264.793 116.706 261.557 128.12 265.055C125.277 248.613 122.435 232.171 119.592 215.728C116.312 196.662 112.989 177.508 103.849 159.229C91.0801 133.691 89.1123 113.138 78.967 87.1624C78.311 85.4569 69.3027 86.0254 66.7227 85.2383C64.2301 87.5122 68.778 93.9842 69.7838 96.7829C71.4018 101.2 72.9323 105.616 74.3316 110.077C77.1303 118.954 79.4919 127.919 81.3723 136.927C85.1768 155.031 87.1007 173.31 87.1882 191.589C87.1882 201.778 86.6199 212.055 85.4829 222.288Z" fill="#728342"/>
<path d="M68.1659 190.277C69.5215 190.409 71.0521 190.496 71.7956 191.633C72.1891 192.245 72.2766 193.076 72.8888 193.513C73.2824 193.819 73.8072 193.82 74.2882 193.907C76.2998 194.301 77.9614 196.181 78.0489 198.236C78.1363 200.292 76.737 202.347 74.7691 202.959C72.5389 203.659 70.1337 202.609 68.0784 201.472C64.2301 199.417 60.6005 197.056 57.1459 194.388C56.7523 194.082 56.3589 193.776 56.184 193.338C55.2219 191.196 56.7525 188.003 58.939 187.829C61.519 187.654 65.3235 190.059 68.1659 190.277Z" fill="#EDDCD1"/>
<path d="M53.735 182.974C45.645 176.328 39.8724 167.188 36.0679 157.48C34.931 154.55 33.9254 151.533 33.5318 148.428C33.007 144.623 33.3568 140.819 33.6629 137.014C34.1002 131.854 34.5376 126.607 36.2868 121.753C37.4238 118.517 39.129 115.456 40.4409 112.263C42.4088 107.409 43.4147 102.249 44.4205 97.1328C44.7266 95.6459 44.989 94.1154 44.6829 92.6723C44.3768 91.1855 43.3271 89.7861 41.8403 89.5237C40.2223 89.2614 38.7355 90.3984 37.5111 91.5353C26.6661 101.724 20.85 116.286 18.3136 130.936C16.5207 141.3 16.3021 152.32 20.5001 161.94C22.2493 165.92 24.6982 169.549 27.322 173.004C35.0184 183.062 44.814 192.114 56.8834 195.875C57.3207 196.006 57.8019 196.137 58.1517 195.918C58.5016 195.744 58.6326 195.35 58.8075 195C59.5947 193.12 61.6064 190.321 60.6444 188.222C59.7698 186.254 55.353 184.33 53.735 182.974Z" fill="#EDEDED"/>
<path d="M302.951 480.993C310.866 480.95 318.825 480.469 326.74 479.988C348.824 478.632 370.907 477.276 393.035 475.921C396.489 475.702 400.906 474.74 401.037 471.898C401.169 469.361 397.626 467.874 394.653 467.262C383.983 464.988 372.832 464.945 361.812 464.945C345.632 464.945 329.408 465.076 313.228 465.294C303.126 465.426 292.718 465.688 283.404 468.88C278.331 470.629 270.941 477.451 279.25 480.25C281.524 481.037 286.115 480.425 288.564 480.556C293.287 480.862 298.141 481.037 302.951 480.993Z" fill="url(#paint2_linear_8_238)"/>
<path opacity="0.22" d="M302.951 480.993C310.866 480.95 318.825 480.469 326.74 479.988C348.824 478.632 370.907 477.276 393.035 475.921C396.489 475.702 400.906 474.74 401.037 471.898C401.169 469.361 397.626 467.874 394.653 467.262C383.983 464.988 372.832 464.945 361.812 464.945C345.632 464.945 329.408 465.076 313.228 465.294C303.126 465.426 292.718 465.688 283.404 468.88C278.331 470.629 270.941 477.451 279.25 480.25C281.524 481.037 286.115 480.425 288.564 480.556C293.287 480.862 298.141 481.037 302.951 480.993Z" fill="url(#paint3_linear_8_238)"/>
<path d="M264.382 91.6665C264.119 90.0485 262.895 88.7804 261.671 87.6434C261.058 87.0749 260.402 86.4627 259.746 85.9379C256.292 83.2267 251.787 81.871 247.371 82.2646C246.103 82.3958 244.791 82.6582 243.872 83.4891C243.129 84.1888 242.692 85.1508 242.517 86.1566C242.473 86.3753 242.429 86.6376 242.517 86.8562C242.692 87.6871 243.698 87.9932 244.529 88.1244C245.403 88.2556 246.321 88.4306 247.021 88.9553C247.721 89.4801 248.158 90.5296 247.721 91.273C247.502 91.6228 247.152 91.8852 247.065 92.2788C246.933 92.9347 247.589 93.5032 248.245 93.7219C250.651 94.509 253.274 93.2408 255.723 93.7656C256.467 93.9405 257.21 94.2466 257.954 94.4653C258.697 94.6402 259.528 94.7276 260.227 94.3341C260.927 94.2466 261.67 94.1154 262.37 93.9405C263.07 93.7656 263.857 93.5032 264.207 92.891C264.426 92.5411 264.469 92.1038 264.382 91.6665Z" fill="#EADDD0"/>
<path d="M224.632 63.592C230.36 62.7611 236.176 61.8865 241.992 62.1489C243.129 62.1926 244.353 62.3237 245.184 63.0672C245.971 63.7668 246.234 64.8601 246.496 65.9096C252.444 91.4479 258.347 116.986 264.294 142.524C264.382 142.962 264.513 143.399 264.426 143.836C264.251 144.842 263.245 145.411 262.37 145.848C247.502 153.063 230.36 153.369 213.874 153.501C212.431 153.501 210.9 153.501 209.763 152.67C208.495 151.795 208.014 150.221 207.577 148.734C200.842 124.639 199.268 99.3629 193.627 74.9617C193.233 73.2562 192.796 71.4196 193.365 69.7141C194.589 66.0408 203.16 66.7405 206.309 66.3032C212.387 65.4286 218.509 64.5103 224.632 63.592Z" fill="#545454"/>
<path d="M224.937 66.8717C230.229 66.0846 235.608 65.2974 240.943 65.4286C241.992 65.4724 243.129 65.5598 243.873 66.2157C244.572 66.8279 244.835 67.7463 245.053 68.6647C250.257 90.792 255.461 112.919 260.665 135.09C260.752 135.44 260.84 135.834 260.752 136.227C260.577 137.102 259.659 137.627 258.828 138.02C245.053 144.448 229.223 144.886 214.005 145.192C212.693 145.236 211.294 145.236 210.2 144.536C209.063 143.793 208.583 142.393 208.233 141.125C202.286 120.222 201.061 98.3134 196.12 77.1482C195.77 75.6614 195.42 74.0871 195.944 72.6003C197.125 69.3643 204.997 69.9328 207.883 69.4955C213.612 68.5771 219.296 67.7026 224.937 66.8717Z" fill="#F7F7F7"/>
<path d="M234.733 148.734C234.864 148.953 235.083 149.128 235.258 149.259C235.739 149.565 236.264 149.74 236.832 149.696C237.401 149.652 237.925 149.434 238.275 149.04C239.369 147.772 238.931 145.585 237.051 145.454C235.651 145.367 233.902 147.378 234.733 148.734Z" fill="#F7F7F7"/>
<path d="M294.249 125.382C289.833 119.916 286.815 113.444 282.311 108.065C276.232 100.806 269.76 95.6022 265.737 87.0312C263.857 89.9611 257.56 92.891 255.68 95.8209C262.982 105.748 270.285 114.1 273.346 127.744C274.789 134.041 281.611 143.443 284.891 149.04C286.64 152.014 289.002 154.594 291.494 156.999C296.873 162.203 303.258 166.751 310.604 168.063C321.755 170.03 332.644 162.684 332.425 150.746C332.207 140.032 317.688 141.038 310.342 137.714C304.088 134.915 298.491 130.674 294.249 125.382Z" fill="#E0C74E"/>
<path d="M314.671 81.1713C318.169 82.6144 321.537 83.5328 323.985 83.5765C326.872 83.6202 329.539 82.1772 332.075 80.8216C337.279 77.9791 342.746 74.8306 345.413 69.5392C346.944 66.4344 347.337 62.8923 347.643 59.4377C348.387 50.7354 348.737 42.0331 348.649 33.2872C348.605 28.8267 348.387 24.0602 345.894 20.3432C341.74 14.0461 333.125 12.9528 325.56 12.5155C318.126 12.0782 310.254 11.7284 303.651 15.2268C296.785 18.9001 298.36 24.3226 297.835 31.057C297.179 39.4968 296.786 47.9804 296.698 56.4203C296.654 61.2306 296.829 66.3032 299.322 70.4138C301.727 74.3058 308.374 78.5913 314.671 81.1713Z" fill="#EADDD0"/>
<path d="M357.876 352.384C356.652 319.499 359.057 286.002 358.795 252.898C359.538 241.441 358.27 229.765 355.077 218.964C354.859 218.308 354.684 217.608 354.29 217.084C353.066 215.509 351.011 216.34 349.393 217.171C333.956 225.305 315.677 223.425 301.552 212.011C298.753 217.39 297.966 224.037 297.31 230.421C296.217 240.742 295.036 251.062 294.73 261.47V261.513C294.686 263.744 294.643 265.974 294.686 268.204C294.905 281.148 296.873 293.873 298.447 306.643C299.453 314.951 300.371 323.347 300.459 331.743C300.546 338.653 299.803 344.95 301.027 351.684C304.045 368.302 304.088 386.406 305.357 403.417C306.756 421.608 308.112 439.8 309.249 458.035C309.292 458.779 309.336 459.478 309.38 460.222C310.123 460.484 321.143 463.676 321.143 460.047C321.974 424.669 322.805 389.292 323.636 353.914C323.985 339.046 323.067 288.757 325.997 274.545C327.222 274.72 328.446 274.851 329.67 275.026C336.448 321.817 344.582 403.81 351.36 450.601C351.973 454.712 352.672 459.172 354.815 461.84C356.958 464.507 360.937 463.72 361.593 459.653C359.45 423.882 359.188 388.155 357.876 352.384Z" fill="#4D4D4D"/>
<path d="M325.953 459.916C325.822 459.522 325.735 459.085 325.604 458.691C324.248 453.356 323.548 447.846 323.548 442.336C323.548 439.844 323.679 437.307 323.111 434.858C319.919 434.902 310.954 434.334 307.762 434.377C307.499 434.377 307.193 434.377 306.975 434.552C306.756 434.727 306.669 435.077 306.625 435.34C305.226 442.949 309.948 451.301 308.243 458.866C307.543 461.883 304.744 462.977 302.164 464.507C299.934 465.863 295.517 469.143 292.85 469.143C291.319 469.755 289.701 470.367 288.564 471.591C287.427 472.816 286.99 474.828 288.04 476.139C288.958 477.276 290.62 477.364 292.063 477.408C303.17 477.495 314.321 476.533 325.254 474.521C325.91 474.39 326.609 474.259 327.09 473.778C327.484 473.384 327.659 472.86 327.79 472.379C329.058 467.525 327.222 464.114 325.953 459.916Z" fill="#BE9F3E"/>
<path d="M366.535 462.758C366.185 461.577 365.398 460.572 365.004 459.435C364.567 458.254 364.786 456.767 364.786 455.499C364.786 449.727 364.786 443.998 364.786 438.226C364.786 436.476 364.611 434.421 363.124 433.547C362.118 432.934 360.806 433.109 359.669 433.328C356.302 433.896 352.891 434.509 349.524 435.077C348.649 435.252 347.643 435.427 347.162 436.17C346.681 436.914 346.813 437.876 346.988 438.75C347.993 444.304 348.387 449.945 348.212 455.543C348.168 457.161 348.037 458.779 348.212 460.397C344.32 463.72 340.034 466.606 335.399 468.836C334.043 469.492 332.644 470.148 331.682 471.285C330.72 472.466 330.458 474.303 331.507 475.396C332.425 476.358 333.912 476.358 335.18 476.271C345.151 475.658 355.121 474.084 364.786 471.591C365.354 471.46 365.966 471.285 366.36 470.804C366.666 470.455 366.797 469.974 366.885 469.493C367.366 467.306 367.234 464.945 366.535 462.758Z" fill="#BE9F3E"/>
<path d="M314.627 93.1533C316.07 92.6723 317.514 92.1038 318.913 91.579C326.041 88.8241 333.169 86.0691 340.253 83.3578C341.302 82.9642 342.439 82.5269 343.533 82.7456C344.407 82.9205 345.107 83.4453 345.807 84.0138C359.144 94.7276 362.774 112.176 366.447 128.05C379.435 184.155 383.589 242.097 378.735 299.383C346.944 304.85 314.846 308.435 282.573 310.097C284.366 310.01 287.996 270.784 288.433 266.936C290.838 244.284 292.107 221.457 291.844 198.673C291.582 175.803 292.762 152.976 294.38 130.149C295.036 120.922 295.78 111.695 296.611 102.468C296.917 98.8382 307.368 95.1212 309.992 94.5527C311.61 94.1154 313.14 93.6344 314.627 93.1533Z" fill="#FCEE9F"/>
<path d="M243.042 121.447C239.937 117.467 237.226 113.225 234.471 108.94C233.465 107.322 232.547 105.223 233.64 103.649C234.296 102.73 235.564 102.337 236.701 102.468C237.838 102.599 238.887 103.167 239.849 103.823C241.249 104.785 242.473 105.922 243.698 107.147C249.076 112.569 251.438 120.703 253.493 128.05C255.024 133.56 255.33 139.638 258.741 144.23C257.91 144.755 257.079 145.279 256.248 145.804C256.073 145.935 255.811 146.066 255.592 145.979C255.373 145.935 255.242 145.673 255.111 145.454C253.187 141.519 251.569 137.539 249.295 133.735C247.021 129.843 245.797 125.076 243.042 121.447Z" fill="#EDEDED"/>
<path d="M267.355 147.728C267.793 147.728 268.274 147.728 268.624 147.466C269.105 147.16 269.236 146.504 269.323 145.935C270.591 138.239 269.804 130.324 268.755 122.584C267.006 122.277 265.213 122.496 263.42 122.715C258.609 123.327 253.799 123.939 248.989 124.551C246.146 124.901 243.304 125.295 240.68 126.344C241.948 134.172 243.216 142 244.441 149.827C244.528 150.352 265.475 147.772 267.355 147.728Z" fill="#E2E2E2"/>
<path d="M236.57 96.127C235.695 97.7888 234.164 98.9694 232.678 100.106C231.453 101.025 230.185 101.987 228.654 102.162C226.031 102.424 223.844 100.238 222.095 98.226C219.471 95.2087 216.76 92.0164 215.929 88.1245C215.142 84.5823 216.104 80.7341 218.422 77.9354C220.739 75.1804 224.369 73.5187 227.998 73.6499C232.328 73.8248 237.75 75.7052 237.707 80.7341C237.707 83.0081 237.313 85.2383 237.4 87.5122C237.488 90.3547 237.925 93.547 236.57 96.127Z" fill="#EDDCD1"/>
<path d="M237.838 76.2736C239.543 78.5913 240.418 81.39 241.161 84.1887C241.249 84.4511 241.292 84.7134 241.205 84.9321C241.03 85.3256 240.505 85.4131 240.068 85.4131C235.564 85.5006 231.016 85.6318 226.512 85.7192C224.981 85.763 223.188 85.9379 222.445 87.2935C222.051 88.0369 222.095 88.9115 222.182 89.7424C222.445 91.7102 222.97 93.6343 223.757 95.471C222.314 94.2466 221.439 92.4099 220.914 90.5733C220.608 89.5237 220.039 88.1681 218.946 88.2556C217.853 88.343 217.503 89.8736 218.028 90.8356C218.509 91.7977 219.471 92.4536 220.083 93.372C220.564 94.0717 220.783 94.9025 221.045 95.6896C221.745 97.9636 222.663 100.194 224.106 102.074C225.549 103.955 227.561 105.485 229.879 106.01C227.998 105.66 226.118 105.31 224.238 104.96C222.27 104.611 220.258 104.217 218.29 103.823C216.891 103.561 215.448 103.255 214.267 102.424C213.436 101.899 212.78 101.156 212.212 100.325C209.413 96.3456 209.02 91.098 209.457 86.244C209.807 82.4395 210.638 78.4601 213.305 75.7051C216.366 72.5128 221.133 71.6819 225.549 71.2009C230.097 70.7636 235.083 72.4254 237.838 76.2736Z" fill="#EDDDB2"/>
<path d="M223.8 160.76C225.681 154.769 225.943 148.209 223.888 142.262C222.357 137.801 219.515 133.516 219.865 128.793C220.04 126.344 221.045 124.027 221.876 121.709C223.757 116.418 224.675 110.776 224.544 105.179C224.544 104.873 224.544 104.567 224.675 104.348C224.981 103.867 225.724 103.955 226.337 104.042C228.392 104.392 230.535 104.042 232.415 103.124C233.465 102.599 233.64 102.118 234.558 102.905C235.301 103.605 235.87 104.873 236.394 105.748C238.843 109.596 241.118 113.619 242.386 117.992C242.998 120.178 243.391 122.496 244.485 124.508C245.403 126.169 246.715 127.525 247.895 128.968C252.137 134.347 253.887 141.256 257.429 147.116C257.997 148.078 258.609 148.996 258.959 150.09C259.309 151.139 259.309 152.364 258.653 153.326C258.216 153.982 257.516 154.419 256.816 154.812C255.811 155.425 254.805 155.993 253.843 156.605C252.444 157.436 251.088 158.267 249.601 158.879C247.764 159.623 245.84 160.06 243.916 160.454C240.374 161.241 236.832 161.984 233.29 162.771C231.278 163.209 229.267 163.646 227.211 163.908C225.812 164.083 224.019 163.908 223.669 162.553C223.407 161.984 223.626 161.372 223.8 160.76Z" fill="#F2F2F2"/>
<path d="M232.328 151.139C234.339 159.929 236.963 168.762 243.304 176.153C241.292 174.928 237.531 175.846 235.039 177.246C232.502 178.601 230.404 180.438 227.517 181.356C225.025 182.144 222.226 182.187 220.171 181.4C216.235 179.913 216.017 176.196 216.148 173.004C216.804 156.737 217.984 140.425 217.11 124.376C216.935 121.228 216.716 117.948 218.509 114.756C219.559 112.876 221.264 111.083 221.483 109.202C221.57 108.24 221.264 107.322 221.57 106.36C221.876 105.398 225.506 103.649 226.949 103.561C229.748 105.616 226.468 109.465 226.643 112.395C226.861 115.543 227.124 118.692 227.43 121.84C228.086 128.225 229.004 134.609 230.185 140.906C230.841 144.317 231.54 147.728 232.328 151.139Z" fill="#728342"/>
<path d="M248.683 157.48C249.12 162.64 249.295 168.019 252.4 172.479C252.75 172.96 253.1 173.441 253.755 173.704C255.417 174.491 257.954 173.835 260.14 173.31C265.257 172.129 264.644 170.861 269.586 171.342C267.049 164.87 264.557 158.398 262.02 151.926C259.091 144.448 256.161 136.883 250.913 130.193C243.61 120.834 241.074 112.613 234.777 102.861C234.383 102.205 230.753 103.211 229.617 103.08C228.786 104.217 231.191 106.491 231.847 107.54C232.896 109.202 233.858 110.908 234.82 112.569C236.701 115.98 238.406 119.435 239.937 122.933C242.998 130.018 245.316 137.277 246.846 144.711C247.677 148.953 248.289 153.194 248.683 157.48Z" fill="#728342"/>
<path d="M238.975 145.848C239.543 145.76 240.155 145.717 240.549 146.11C240.767 146.329 240.855 146.679 241.161 146.81C241.336 146.897 241.555 146.854 241.773 146.854C242.648 146.854 243.435 147.466 243.654 148.297C243.872 149.128 243.435 150.09 242.691 150.483C241.817 150.964 240.768 150.702 239.849 150.439C238.1 149.915 236.438 149.259 234.82 148.472C234.645 148.384 234.47 148.297 234.339 148.122C233.771 147.335 234.121 145.892 234.995 145.629C236.045 145.323 237.794 146.023 238.975 145.848Z" fill="#EDDCD1"/>
<path d="M232.459 144.099C228.611 142.043 225.506 138.807 223.145 135.178C222.445 134.084 221.789 132.948 221.352 131.723C220.827 130.236 220.652 128.618 220.433 127.044C220.171 124.901 219.952 122.715 220.215 120.616C220.433 119.216 220.871 117.817 221.133 116.418C221.526 114.275 221.527 112.088 221.483 109.902C221.483 109.29 221.483 108.634 221.22 108.065C220.958 107.497 220.433 107.016 219.777 107.016C219.078 107.059 218.597 107.628 218.203 108.196C214.617 113.269 213.48 119.654 213.655 125.863C213.786 130.236 214.617 134.74 217.11 138.326C218.159 139.813 219.471 141.081 220.827 142.262C224.806 145.717 229.529 148.603 234.777 149.128C234.952 149.128 235.17 149.171 235.301 149.04C235.433 148.953 235.476 148.778 235.476 148.603C235.651 147.772 236.22 146.46 235.651 145.673C235.214 144.929 233.246 144.492 232.459 144.099Z" fill="#EDEDED"/>
<path d="M251.132 149.477C250.651 147.684 250.126 145.892 249.208 144.23C248.027 142.087 246.146 140.382 244.047 139.157C242.735 138.37 241.161 137.758 239.674 138.151C238.362 138.545 237.4 139.726 236.963 140.994C236.526 142.306 236.613 143.705 236.832 145.061C237.794 150.702 243.435 159.841 250.213 158.355C251.394 158.092 252.706 157.393 252.837 156.168C252.881 155.731 252.75 155.293 252.662 154.856C252.137 153.107 251.613 151.314 251.132 149.477Z" fill="#EADDD0"/>
<path d="M317.776 174.403C314.496 182.231 309.948 190.846 301.684 192.901C296.305 194.213 290.664 192.289 285.547 190.059C275.358 185.598 265.694 179.957 256.86 173.223C251.263 168.937 245.403 162.684 247.108 155.862C247.371 154.812 247.852 153.763 248.77 153.151C250.913 151.751 253.581 153.719 255.461 155.425C264.644 163.821 276.233 169.637 288.477 171.998C290.008 172.304 291.626 172.523 293.112 172.173C297.092 171.255 299.06 166.838 300.328 162.946C305.488 147.553 309.905 131.942 313.578 116.155C314.278 113.094 314.977 109.989 316.77 107.409C319.525 103.43 324.904 101.418 329.627 102.599C344.976 106.491 335.836 124.726 332.775 134.216C328.315 147.772 323.33 161.197 317.776 174.403Z" fill="#E0C74E"/>
<path d="M397.364 124.245C394.916 121.49 390.936 119.741 390.061 116.112C389.405 113.269 391.067 110.383 393.035 108.24C395.047 106.097 397.452 104.261 398.895 101.724C401.825 96.4768 399.026 88.9115 393.341 86.8562C391.023 86.0254 388.487 86.0254 386.213 85.0634C383.939 84.145 381.928 81.6524 382.846 79.3347C383.764 76.9296 387.481 75.4865 386.651 73.0814C386.388 72.3817 385.82 71.8569 385.207 71.4196C383.24 69.9328 381.053 68.7521 378.736 67.8775C376.943 67.1778 375.018 66.6531 373.488 65.5161C369.508 62.4987 369.421 56.5078 366.404 52.5283C365.791 51.6975 365.048 50.9978 364.261 50.3855C364.305 49.9482 364.304 49.5109 364.304 49.0736C364.392 45.619 364.436 42.0769 363.168 38.8409C362.424 36.9168 361.2 35.2113 360.194 33.4183C360.15 33.3746 360.15 33.2872 360.107 33.2435C363.605 34.118 367.497 33.637 370.339 31.4068C373.619 28.8267 374.887 23.7978 372.701 20.2557C371.826 18.8563 370.558 17.8068 369.552 16.4949C366.404 12.2968 365.879 7.96762 359.844 7.44287C356.346 7.13676 352.191 7.70522 350.267 10.8975C344.889 3.68207 335.618 -0.209912 326.609 0.00873752C317.12 0.227387 308.068 4.55667 300.896 10.7663C298.666 12.7342 296.523 14.9206 295.211 17.5882C293.899 20.2557 293.506 23.2293 293.243 26.1592C292.981 29.0454 292.5 33.3746 293.899 36.0422L293.637 37.529C292.325 39.3219 294.031 41.8145 295.824 43.1264C307.325 51.8286 324.816 49.1611 335.88 58.4318C340.559 62.3238 343.489 67.965 345.238 73.8248C346.069 76.6235 346.681 79.5533 346.375 82.4832C345.676 89.0427 340.778 94.1591 337.061 99.6253C332.557 106.229 329.539 113.881 328.446 121.796C327.878 125.776 327.965 130.367 330.807 133.21C333.475 135.921 337.979 136.446 339.991 139.682C342.527 143.749 339.422 148.996 339.553 153.807C339.685 158.355 343.183 162.596 347.643 163.558C351.273 164.346 354.99 163.165 358.663 162.728C362.337 162.334 366.71 163.077 368.459 166.357C369.683 168.675 369.246 171.561 370.296 173.966C371.826 177.464 376.199 178.951 379.96 178.339C383.721 177.727 387 175.54 390.149 173.354C391.854 172.173 393.691 170.774 393.91 168.719C394.041 167.275 393.341 165.876 392.51 164.695C389.93 160.891 386.082 156.868 387.438 152.495C388.312 149.609 391.199 147.859 393.516 145.935C396.665 143.312 399.157 139.813 400.032 135.834C400.907 131.723 400.076 127.263 397.364 124.245Z" fill="#5E625E"/>
<defs>
<linearGradient id="paint0_linear_8_238" x1="2.80901" y1="468.094" x2="154.252" y2="475.325" gradientUnits="userSpaceOnUse">
<stop stop-color="white"/>
<stop offset="1"/>
</linearGradient>
<linearGradient id="paint1_linear_8_238" x1="2.80901" y1="468.094" x2="154.252" y2="475.325" gradientUnits="userSpaceOnUse">
<stop/>
<stop offset="1"/>
</linearGradient>
<linearGradient id="paint2_linear_8_238" x1="275.497" y1="472.299" x2="400.984" y2="473.76" gradientUnits="userSpaceOnUse">
<stop stop-color="white"/>
<stop offset="1"/>
</linearGradient>
<linearGradient id="paint3_linear_8_238" x1="275.497" y1="472.299" x2="400.984" y2="473.76" gradientUnits="userSpaceOnUse">
<stop/>
<stop offset="1"/>
</linearGradient>
</defs>
</svg>
