<svg width="342" height="342" viewBox="0 0 342 342" fill="none" xmlns="http://www.w3.org/2000/svg">
<path d="M170.533 341.063C144.75 341.136 119.292 335.302 96.1131 324.009C87.6301 319.883 79.5022 315.063 71.8124 309.6L69.4762 307.894C48.3272 292.284 31.0362 272.035 18.9307 248.703C6.40924 224.554 -0.0851057 197.734 0.000842103 170.531C0.000842103 76.3494 76.3511 0 170.533 0C264.714 0 341.064 76.3494 341.064 170.531C341.15 197.721 334.663 224.528 322.152 248.669C310.063 271.987 292.797 292.229 271.675 307.843C263.708 313.675 255.251 318.81 246.402 323.191L245.038 323.873C221.844 335.225 196.357 341.107 170.533 341.063ZM170.533 255.797C144.979 255.748 121.551 270.019 109.875 292.751C148.098 311.683 192.968 311.683 231.191 292.751V292.666C219.501 269.96 196.072 255.719 170.533 255.797ZM170.533 221.691C207.472 221.738 241.532 241.645 259.704 273.805L259.96 273.583L260.198 273.379L259.908 273.635L259.738 273.771C302.865 236.512 318.286 176.369 298.408 122.955C278.53 69.5406 227.543 34.1117 170.55 34.1117C113.557 34.1117 62.5695 69.5406 42.6916 122.955C22.8138 176.369 38.2348 236.512 81.3622 273.771C99.5453 241.626 133.602 221.735 170.533 221.691ZM170.533 204.638C132.86 204.638 102.32 174.097 102.32 136.425C102.32 98.7523 132.86 68.2125 170.533 68.2125C208.205 68.2125 238.746 98.7523 238.746 136.425C238.746 154.517 231.559 171.867 218.766 184.658C205.975 197.451 188.625 204.638 170.533 204.638ZM170.533 102.319C151.696 102.319 136.427 117.589 136.427 136.425C136.427 155.262 151.696 170.531 170.533 170.531C189.37 170.531 204.639 155.262 204.639 136.425C204.639 117.589 189.37 102.319 170.533 102.319Z" fill="black"/>
</svg>