<svg width="165" height="258" viewBox="0 0 165 258" fill="none" xmlns="http://www.w3.org/2000/svg">
<path d="M152.61 168.235H100.398V251.079H152.61V168.235Z" fill="#B2B2B2"/>
<path d="M100.602 168.235H48.3912V251.079H100.602V168.235Z" fill="#D1D1D1"/>
<path d="M73.248 67.7711L71.0222 112.303L60.5562 144.958H79.3984L89.1848 116.822L92.2431 84.8464L73.248 67.7711Z" fill="#F7EBE7"/>
<path d="M72.7212 223.419L76.51 241.072L63.7843 242.584L60.1653 225.203L72.7212 223.419Z" fill="#FCC9A7"/>
<path d="M77.2746 239.475C76.9518 238.523 75.9324 238.184 75.2358 238.795C73.8765 240.002 71.4299 241.48 67.811 241.123C64.0562 240.749 62.646 238.54 62.1023 236.943C61.8135 236.111 61.0149 235.686 60.3013 236.043L37.5174 247.494C36.1412 248.191 35.0537 249.482 34.5101 251.096C34.0003 252.608 35.0198 254.239 36.447 254.206L75.8135 253.118C77.3596 253.084 78.5489 251.555 78.4129 249.788L77.7673 241.123C77.7503 240.987 77.7333 240.834 77.6824 240.698L77.2746 239.475Z" fill="#1F252A"/>
<path d="M72.5004 138.06H42.9542C42.9542 138.06 24.9615 137.058 23.8911 151.822C22.8207 166.587 50.2771 208.824 54.5756 231.388L79.2795 229.349L61.4907 167.997L105.733 168.252C109.012 168.269 112.275 167.793 115.367 166.723C123.981 163.732 137.131 159.451 129.961 135.732L72.5004 138.06Z" fill="#092330"/>
<path d="M95.3013 223.487L101.316 244.589L88.5901 246.101L82.7455 225.271L95.3013 223.487Z" fill="#FCC9A7"/>
<path d="M102.08 242.992C101.758 242.041 100.738 241.701 100.042 242.312C98.6824 243.519 96.2358 244.997 92.6169 244.64C88.862 244.266 87.4517 242.058 86.908 240.46C86.6192 239.628 85.8207 239.203 85.1071 239.56L62.3232 251.011C60.9469 251.708 59.8595 252.999 59.3158 254.613C58.8061 256.125 59.8256 257.757 61.2528 257.723L101.299 256.635C102.845 256.601 104.034 255.072 103.898 253.305L102.556 244.64C102.539 244.504 102.522 244.351 102.471 244.215L102.08 242.992Z" fill="#1F252A"/>
<path d="M107.806 50.2712C108.469 50.9168 138.117 58.4775 138.117 58.4775L131.78 75.3148L99.3621 72.8682L107.806 50.2712Z" fill="#F7EBE7"/>
<path d="M95.5732 54.3319C95.5732 54.3319 76.2553 61.3829 73.248 67.7712C74.2844 76.7931 77.4616 85.4751 82.6946 92.8998C89.1169 102.007 97.0514 117.655 95.5902 138.06H151.437C151.437 138.06 148.43 80.6498 131.898 58.6135L95.5732 54.3319Z" fill="#F7EBE7"/>
<path d="M101.91 63.4387C107.398 62.3173 110.932 56.9654 109.811 51.4775L106.532 35.4217L86.6702 39.4824L89.9493 55.5382C91.0707 61.0261 96.4226 64.56 101.91 63.4387Z" fill="#FCC9A7"/>
<path d="M107.891 41.0284C107.891 41.0284 105.801 54.043 95.675 54.8246C86.8061 55.5042 87.6556 42.6765 87.6556 42.6765L107.891 41.0284Z" fill="#F4BE9A"/>
<path d="M96.4735 47.6887L98.2236 47.2809C107.008 45.2421 112.478 36.4751 110.44 27.7081L108.129 17.7008C106.09 8.91686 97.3231 3.44599 88.5561 5.48482L86.8061 5.89259C78.0221 7.93143 72.5512 16.6984 74.59 25.4654L76.9008 35.4727C78.9396 44.2567 87.7066 49.7275 96.4735 47.6887Z" fill="#FCC9A7"/>
<path d="M104.935 31.8707C104.527 32.5673 104.136 33.6207 104 35.2178C103.847 37.2396 102.828 39.1595 101.129 40.2808C96.2526 43.509 92.5318 35.3367 85.3279 36.7809C85.3279 36.7809 82.5075 37.2056 81.9468 40.3488C81.3862 43.475 77.4614 38.0041 76.5949 34.2663C75.7284 30.5284 75.2867 52.7687 93.0245 50.8828C93.0245 50.8828 101.978 50.594 108.01 41.4702C108.673 40.4677 109.063 39.2954 109.097 38.0891C109.148 36.3051 108.893 33.6037 107.194 31.6668C106.6 30.9532 105.41 31.0551 104.935 31.8707Z" fill="#1C2226"/>
<path d="M104.952 26.8246C104.952 26.8246 97.2891 24.293 98.5803 13.0965C98.5803 13.0965 79.5512 31.1061 65.4493 17.8877C65.4493 17.8877 71.7528 16.2057 74.3523 11.8901C79.0926 4.02364 92.7187 -6.81615 103.626 5.72268C103.626 5.72268 116.896 3.66685 113.09 24.1062L104.952 26.8246Z" fill="#1C2226"/>
<path d="M104.952 26.8246C105.682 29.9508 108.809 31.9046 111.935 31.1911C115.078 30.4605 117.015 27.3343 116.301 24.2081C115.571 21.0818 112.444 19.128 109.318 19.8415C106.175 20.5721 104.221 23.6983 104.952 26.8246Z" fill="#FCC9A7"/>
<path d="M95.2674 62.81L103.474 62.9629L97.7309 74.8561L91.5295 63.4556L95.2674 62.81Z" fill="#0C2C40"/>
<path d="M110.508 50.7979L99.9396 63.1328L106.821 71.0333L119.478 53.6352C119.478 53.6352 116.233 48.4192 110.508 50.7979Z" fill="#FFF7F3"/>
<path d="M95.2675 62.8101L89.1849 69.6742L84.9033 58.9703C84.9033 58.9703 86.0247 54.162 89.5247 55.0795L95.2675 62.8101Z" fill="#FFF7F3"/>
<path d="M97.51 71.0163C97.51 71.0163 89.5756 91.7105 91.5465 121.07L99.362 128.206L108.486 119.422L98.6484 69.6741L97.51 71.0163Z" fill="#0C2C40"/>
<path d="M112.343 120.152L95.3523 125.742L94.2308 135.715L116.76 128.987L112.343 120.152Z" fill="#FCC9A7"/>
<path d="M97.8838 132.334C97.8838 138.162 93.1604 142.902 87.3158 142.902C81.4881 142.902 76.7479 138.179 76.7479 132.334C76.7479 126.507 81.4711 121.766 87.3158 121.766C93.1434 121.766 97.8838 126.49 97.8838 132.334Z" fill="#FCC9A7"/>
<path d="M95.5732 138.06H66.0441C66.0441 138.06 48.0514 137.057 46.981 151.822C45.9106 166.587 75.3887 211.543 79.6873 234.089L104.391 232.05L84.5805 167.98L128.823 168.235C132.102 168.252 135.364 167.776 138.457 166.706C147.071 163.715 160.221 159.434 153.051 135.715L95.5732 138.06Z" fill="#0C2C40"/>
<path d="M6.49304 85.8488H57.5489C59.2309 85.8488 60.6751 87.0212 61.0319 88.6692L70.6483 133.761C71.124 135.97 69.425 138.06 67.1653 138.06H15.26C13.561 138.06 12.0999 136.854 11.777 135.189L3.01005 90.0964C2.5683 87.8876 4.25032 85.8488 6.49304 85.8488Z" fill="#B2B2B2"/>
<path d="M3.55377 85.8488H54.5926C56.2746 85.8488 57.7188 87.0212 58.0756 88.6692L67.6921 133.761C68.1678 135.97 66.4858 138.06 64.2091 138.06H12.3208C10.6217 138.06 9.16059 136.854 8.83777 135.189L0.070781 90.0964C-0.370966 87.8876 1.31105 85.8488 3.55377 85.8488Z" fill="#D1D1D1"/>
<path d="M69.2553 134.203H104.136C105.207 134.203 106.056 135.07 106.056 136.123C106.056 137.193 105.19 138.043 104.136 138.043H68.5757L69.2553 134.203Z" fill="#B2B2B2"/>
<path d="M35.1557 110.774C35.1557 113.849 32.6751 116.329 29.5999 116.329C26.5246 116.329 24.0441 113.832 24.0441 110.774C24.0441 107.698 26.5416 105.218 29.5999 105.218C32.6751 105.218 35.1557 107.698 35.1557 110.774Z" fill="white"/>
<path d="M125.935 74.5164L144.59 104.64L99.9396 120.577L106.056 133.795C106.056 133.795 144.233 129.514 162.685 115.293C164.384 113.985 165.233 111.861 164.944 109.737C164.078 102.941 160.374 86.4435 144.59 62.997C141.379 58.2227 134.991 56.7785 130.012 59.6669C124.83 62.6571 123.012 69.2834 125.935 74.5164Z" fill="#F7EBE7"/>
<path d="M111.816 116.329L144.59 104.64L128.194 78.1523" stroke="#EADDD8" stroke-width="0.7599" stroke-miterlimit="10" stroke-linecap="round" stroke-linejoin="round"/>
<path d="M89.6267 106.356L81.5563 85.0504" stroke="#EADDD8" stroke-width="0.7599" stroke-miterlimit="10" stroke-linecap="round" stroke-linejoin="round"/>
<path d="M112.343 132.895C112.343 132.895 137.42 129.752 150.061 122.514" stroke="#EADDD8" stroke-width="0.7599" stroke-miterlimit="10" stroke-linecap="round" stroke-linejoin="round"/>
</svg>
